<svg width="67" height="88" viewBox="0 0 67 88" fill="none" xmlns="http://www.w3.org/2000/svg">
<path fill-rule="evenodd" clip-rule="evenodd" d="M63.8516 72.4368C63.6348 71.2061 63.3004 70.0006 63.0504 68.7754C62.7901 67.5025 62.6814 66.2386 62.7554 64.9399C62.8961 62.484 63.5179 60.0288 63.2406 57.5607C63.0252 55.6484 62.2002 53.9794 60.9335 52.5489C58.6 49.9136 55.3116 48.3106 53.0799 45.5726C51.7215 43.907 51.0854 41.8949 51.2193 39.7461C51.3783 37.1788 52.4833 34.8941 53.5094 32.5843C54.4717 30.4183 55.2749 28.0308 54.3453 25.7095C53.9233 24.6559 53.2756 23.7221 52.7334 22.7302C52.1265 21.6219 51.7874 20.4474 51.6841 19.1882C51.4864 16.7686 51.9281 14.3332 51.5238 11.9245C51.1819 9.88759 50.2802 7.96472 49.0332 6.32794C46.3048 2.74696 42.1391 0.73548 37.7295 0.172945C35.4027 -0.123545 33.046 -0.0228345 30.7348 0.353095C30.5806 0.378443 30.5221 0.494781 30.5343 0.613295C27.6469 1.28245 24.7581 2.46603 22.8819 4.74703C22.3131 5.43786 21.8612 6.21045 21.5527 7.05106C21.1504 8.14725 21.0321 9.31581 20.7841 10.4507C20.5469 11.5388 20.1589 12.5659 19.389 13.3908C18.7318 14.0948 17.9089 14.6097 17.0649 15.0593C15.3864 15.9527 13.5387 16.6131 12.1021 17.8999C10.6866 19.167 9.78822 20.9753 9.51164 22.844C9.2337 24.721 9.55513 26.6553 10.5432 28.2865C11.7052 30.207 13.4959 31.7862 13.4694 34.2003C13.4449 36.434 12.0967 38.4747 10.5582 39.9935C8.84364 41.6869 6.63848 42.7402 4.81517 44.2998C3.19728 45.6827 1.80128 47.6704 1.93141 49.8926C2.04714 51.8721 3.26307 53.5289 4.19154 55.2046C4.6711 56.069 5.10677 56.9844 5.25015 57.9731C5.38878 58.9252 5.21549 59.8868 4.85417 60.7716C4.10693 62.605 2.71888 64.1014 1.65381 65.7466C1.11961 66.5722 0.647457 67.4482 0.360277 68.3921C0.00385085 69.5616 -0.0715099 70.8106 0.0614789 72.0223C0.292867 74.1418 1.06613 76.3612 2.56231 77.9269C3.26762 78.6642 4.14948 79.2221 5.13735 79.4919C6.3021 79.8093 7.52598 79.7366 8.70908 79.5803C9.97917 79.4124 11.2357 79.1691 12.5173 79.0917C13.8193 79.0142 15.1295 79.0577 16.4247 79.2201C17.7179 79.3812 18.9989 79.6713 20.2398 80.0729C21.4127 80.4521 22.5421 80.9475 23.6892 81.3967C25.7999 82.2224 27.9914 82.8054 30.2516 82.2727C34.1373 81.3566 37.0234 78.0411 40.9934 77.3799C45.4812 76.6317 49.1868 80.2598 53.2668 81.4232C56.6163 82.378 60.7963 81.445 62.8927 78.5072C64.1648 76.7268 64.2165 74.521 63.8516 72.4368Z" fill="#50382B"/>
<path fill-rule="evenodd" clip-rule="evenodd" d="M20.8454 28.4814C20.9929 28.9465 21.2083 29.3944 21.4264 29.7914C21.9619 30.7666 22.6965 31.6094 23.3468 32.5075C24.0216 33.4392 24.5524 34.4511 24.816 35.5784C25.0994 36.7928 25.0804 38.0568 24.9329 39.2875C24.8018 40.3781 24.5687 41.4498 24.1589 42.4725C23.4895 44.1429 22.3798 45.5509 21.0214 46.7177C19.5529 47.9803 17.888 49.0384 16.2523 50.0693C15.2615 50.6945 14.2313 51.2551 13.2188 51.8443C13.354 51.9734 13.4872 52.1052 13.6176 52.2404C13.759 52.3859 13.8936 52.5354 14.022 52.6883C15.8282 51.7185 17.7799 50.971 19.6304 50.1997C21.667 49.3503 23.6825 48.4146 25.5302 47.1988C26.4259 46.609 27.291 46.0089 27.908 45.1201C28.5182 44.2414 28.8757 43.2092 29.1332 42.1769C29.6483 40.1165 29.8026 37.9834 29.9365 35.8632C29.9419 35.7803 29.9467 35.6967 29.9508 35.6131L29.9501 35.6124C29.9711 35.2135 29.984 34.8099 29.997 34.4049C29.2195 34.1833 28.4632 33.8965 27.7408 33.5309C26.288 32.7963 24.9791 31.7252 24.0726 30.3811C24.0719 30.3794 24.0706 30.3777 24.0692 30.3759C24.0597 30.3623 24.0509 30.3488 24.042 30.3352C24.04 30.3326 24.0386 30.3299 24.0366 30.3273C24.0271 30.3126 24.0176 30.298 24.008 30.2832C24.0053 30.28 24.0033 30.2768 24.0012 30.2734C23.9938 30.2617 23.9863 30.2501 23.9788 30.2384C23.9754 30.234 23.9727 30.2296 23.97 30.2253C23.9612 30.211 23.9516 30.1966 23.9428 30.1824C23.9414 30.1796 23.9394 30.1769 23.9374 30.1743C23.9299 30.1622 23.9224 30.1502 23.9149 30.1379C23.9122 30.1331 23.9088 30.1284 23.9061 30.1237C23.8973 30.1089 23.8878 30.0945 23.8789 30.0798C23.7376 29.8465 23.6071 29.6053 23.4895 29.3583C23.3713 29.1076 23.2673 28.8521 23.1749 28.5926C22.8399 28.6869 22.4933 28.7372 22.1427 28.7372C21.9408 28.7372 21.7383 28.7205 21.5358 28.6859C21.2885 28.6435 21.0581 28.574 20.8454 28.4814ZM45.5384 28.5624C45.0525 29.8507 44.3627 31.0596 43.4093 32.0448C41.9327 33.567 39.9599 34.4239 37.8574 34.8105C37.8689 35.1639 37.8832 35.5159 37.9049 35.8632C37.9912 37.2284 38.0877 38.5984 38.2807 39.9514L38.2801 39.95C38.3874 40.6989 38.5254 41.4423 38.7089 42.1769C38.9664 43.2092 39.3232 44.2414 39.9341 45.1201C40.5511 46.0089 41.4162 46.609 42.3118 47.1988C44.1589 48.4146 46.1744 49.3503 48.2117 50.1997C50.9442 51.3394 53.7943 52.4001 56.1734 54.2064C60.1216 57.2032 60.7156 63.5435 61.5399 68.0333C62.1467 71.3366 62.6414 74.6617 63.2353 77.9677C63.8299 76.9022 64.0508 75.715 64.0481 74.5088C64.0461 73.8177 63.9713 73.1204 63.8517 72.4368C63.6349 71.2061 63.3006 70.0006 63.0505 68.7754C62.8426 67.7608 62.7318 66.7523 62.7325 65.7276C62.7331 65.4659 62.7406 65.2036 62.7556 64.94C62.7569 64.9155 62.7583 64.891 62.7596 64.8659C62.761 64.8537 62.7617 64.8407 62.7624 64.8278C62.7624 64.8204 62.7631 64.8136 62.7637 64.8068C62.8249 63.8534 62.9554 62.8993 63.0722 61.9438C62.8718 61.5694 62.6774 61.1888 62.4967 60.8008C61.9754 59.6761 61.5052 58.527 60.9357 57.4248C60.3826 56.3558 59.7275 55.2957 58.9487 54.3763C58.1754 53.463 57.2729 52.6652 56.3114 51.9557C54.6057 50.6972 52.7335 49.7424 50.8389 48.8067C49.1353 47.9654 47.4173 47.1152 45.8849 45.9804C44.3838 44.8666 43.109 43.4715 42.3037 41.7733C41.5453 40.1743 41.1614 38.4156 41.7397 36.6983C42.7604 33.6628 45.8347 31.8178 46.7602 28.7361C46.731 28.7368 46.7018 28.7372 46.6719 28.7372C46.2866 28.7372 45.9047 28.6761 45.5384 28.5624Z" fill="#50382B"/>
<path fill-rule="evenodd" clip-rule="evenodd" d="M66.1519 88C65.1658 86.6083 64.682 84.8734 64.2919 83.1895C63.1326 78.1839 62.4673 73.0831 61.5397 68.0333C60.7154 63.5435 60.1215 57.2033 56.1733 54.2064C53.7942 52.4002 50.9441 51.3394 48.2116 50.1998C46.1743 49.3503 44.1588 48.4146 42.3117 47.1989C41.4161 46.609 40.551 46.009 39.934 45.1201C39.3231 44.2415 38.9663 43.2092 38.7087 42.177C38.1936 40.1166 38.0387 37.9834 37.9048 35.8632C37.8199 34.5143 37.8532 33.1022 37.6588 31.7672C37.648 31.6924 35.8757 31.7448 33.9206 31.8403C31.9662 31.7448 30.1939 31.6924 30.183 31.7672C29.9887 33.1022 30.0213 34.5143 29.9364 35.8632C29.8025 37.9834 29.6482 40.1166 29.1331 42.177C28.8756 43.2092 28.5181 44.2415 27.9079 45.1201C27.2909 46.009 26.4258 46.609 25.5301 47.1989C23.6824 48.4146 21.6669 49.3503 19.6302 50.1998C16.3222 51.5793 12.6906 52.8806 10.1416 55.5153C8.60583 57.102 7.912 59.174 7.6062 61.3234C7.28001 63.6237 7.08294 65.9539 6.78462 68.2515C6.33068 71.76 5.82713 75.2658 5.04972 78.7193C4.34257 81.8616 3.472 84.9685 2.37988 88H66.1519Z" fill="#F3C8AC"/>
<path fill-rule="evenodd" clip-rule="evenodd" d="M64.2919 83.1894C63.1326 78.1838 62.4673 73.0831 61.5397 68.0333C60.7154 63.5428 60.1215 57.2032 56.1733 54.2064C53.7942 52.4001 50.9441 51.3394 48.2123 50.1997C47.7217 49.9952 47.2331 49.7859 46.7479 49.5677C46.6208 51.4508 46.3279 53.3685 45.6531 55.136C45.1054 56.5719 44.3198 57.9093 43.3515 59.1019C42.4008 60.2728 41.2713 61.3016 40.0121 62.1314C38.8018 62.9278 37.4624 63.5428 36.053 63.8873C34.6946 64.2196 33.273 64.2937 31.8942 64.045C30.4522 63.7834 29.0958 63.1602 27.9371 62.2673C26.5203 61.1745 25.4132 59.7176 24.5754 58.1464C23.6104 56.3368 23.0002 54.3538 22.6305 52.3424C22.43 51.2517 22.2995 50.1501 22.2207 49.0445C21.3679 49.4549 20.5014 49.8355 19.6302 50.1997C16.3215 51.5792 12.6906 52.8806 10.1416 55.5152C8.60583 57.102 7.912 59.1739 7.6062 61.3234C7.27933 63.6237 7.08295 65.9538 6.7853 68.2514C6.33068 71.76 5.82713 75.2658 5.04972 78.7193C4.34257 81.8615 3.47213 84.9685 2.37988 88H66.1519C65.1658 86.6082 64.682 84.8733 64.2919 83.1894Z" fill="#D90996"/>
<path fill-rule="evenodd" clip-rule="evenodd" d="M29.9971 34.4048C29.9842 34.8099 29.9713 35.2135 29.9502 35.6124L29.9509 35.6131C29.9726 35.2142 29.9848 34.8105 29.9984 34.4055C29.9978 34.4048 29.9978 34.4048 29.9971 34.4048ZM37.9051 35.8632C37.9914 37.2277 38.0858 38.5977 38.2802 39.95L38.2809 39.9514C38.0879 38.5984 37.9914 37.2284 37.9051 35.8632Z" fill="#B4484E"/>
<path fill-rule="evenodd" clip-rule="evenodd" d="M29.9982 34.4056C29.9847 34.8106 29.9724 35.2143 29.9507 35.6131C30.001 35.6573 30.0533 35.6994 30.1063 35.7382C30.9197 36.3498 31.9826 36.3763 32.9319 36.627C33.9336 36.8927 34.9162 37.3351 35.8071 37.8611C36.719 38.3993 37.5685 39.07 38.2378 39.8943L38.28 39.9501C38.0856 38.5977 37.9912 37.2278 37.9049 35.8632C37.8831 35.516 37.8689 35.164 37.8573 34.8106C36.9052 34.9852 35.9274 35.0641 34.9563 35.0641C34.4962 35.0641 34.0375 35.0464 33.5843 35.0131C32.3747 34.9248 31.163 34.7379 29.9982 34.4056Z" fill="#ECC1A3"/>
<path fill-rule="evenodd" clip-rule="evenodd" d="M24.8833 27.3683C24.3567 26.0114 23.8287 24.6561 23.302 23.2991C23.039 22.1931 21.9708 21.4814 20.8488 21.6691C19.7568 21.8511 19.1153 22.8442 18.9134 23.8626C18.5268 25.8097 19.3409 28.3095 21.5358 28.686C22.7094 28.8865 23.9027 28.4857 24.7923 27.7131C24.8786 27.6383 24.9255 27.4763 24.8833 27.3683Z" fill="#F3C8AC"/>
<path fill-rule="evenodd" clip-rule="evenodd" d="M43.9311 27.3683C44.4591 26.0114 44.9858 24.6561 45.5124 23.2991C45.7754 22.1931 46.8444 21.4814 47.9656 21.6691C49.0577 21.8511 49.6985 22.8442 49.901 23.8626C50.2883 25.8097 49.4742 28.3095 47.2793 28.686C46.105 28.8865 44.9124 28.4857 44.0228 27.7131C43.9365 27.6383 43.889 27.4763 43.9311 27.3683Z" fill="#F3C8AC"/>
<path fill-rule="evenodd" clip-rule="evenodd" d="M47.2982 15.3535C47.3077 15.8366 47.2445 16.3357 47.1901 16.8262C47.1657 17.0225 47.1432 17.216 47.1283 17.4082C47.0128 18.7819 46.8993 20.1562 46.7872 21.5303C46.7797 21.6351 46.7688 21.7376 46.762 21.8424C46.6139 23.6134 46.4481 25.3883 46.0002 27.1079C45.9003 27.4936 45.7841 27.8775 45.6496 28.2558C45.1596 29.6583 44.4379 30.982 43.4091 32.0447C40.9478 34.5815 37.1083 35.2719 33.5841 35.013C31.5672 34.8656 29.5455 34.4443 27.7406 33.5309C26.1804 32.7426 24.7873 31.5657 23.8787 30.0797C23.7373 29.8465 23.6069 29.6053 23.4893 29.3583C22.6283 27.5357 22.5216 25.4631 22.2756 23.4635C22.2253 23.0595 22.1696 22.6565 22.1057 22.2541C21.7891 20.2102 21.3059 18.1894 20.6678 16.22C20.3362 15.1962 20.7392 13.9326 20.9947 12.901C21.2726 11.792 21.647 10.7051 22.1282 9.66599C22.4897 8.88362 22.911 8.13169 23.3867 7.42305C23.7897 6.8213 24.2314 6.24674 24.7071 5.70969C26.6051 3.55761 29.0358 1.98648 31.699 1.36292C35.1634 0.554043 38.9635 1.4412 41.7755 3.82304C42.9857 4.84604 43.9534 6.12768 44.7247 7.50351C45.8426 9.50011 46.567 11.7116 46.9978 13.9568C47.0835 14.4134 47.2866 14.8907 47.2982 15.3535Z" fill="#F3C8AC"/>
<path fill-rule="evenodd" clip-rule="evenodd" d="M23.9062 30.1237C23.909 30.1284 23.9124 30.1331 23.9151 30.1379C23.9124 30.1332 23.909 30.1283 23.9062 30.1237ZM23.9375 30.1743C23.9396 30.1769 23.9416 30.1796 23.9429 30.1824C23.9416 30.1796 23.9396 30.1771 23.9375 30.1743Z" fill="#B4484E"/>
<path fill-rule="evenodd" clip-rule="evenodd" d="M34.2537 1.07092C34.2496 1.07092 34.2449 1.07092 34.2401 1.07092C33.4668 1.07187 32.6934 1.15104 31.9351 1.3106C31.9344 1.31074 31.933 1.31094 31.9323 1.31128C31.8542 1.32766 31.7767 1.34485 31.6993 1.36293C29.0361 1.98649 26.6053 3.55762 24.7073 5.7097C24.2316 6.24675 23.7899 6.82131 23.3869 7.42306C23.372 7.44508 23.357 7.46723 23.3421 7.48959C22.8848 8.17872 22.4791 8.90796 22.1284 9.666C21.6473 10.7051 21.2728 11.7921 20.9949 12.901C20.8074 13.6585 20.5403 14.5413 20.543 15.3623C20.5437 15.6593 20.5804 15.9479 20.668 16.22C21.3061 18.1894 21.7893 20.2102 22.106 22.2541C22.1699 22.6565 22.2256 23.0595 22.2759 23.4635C22.5219 25.4631 22.6286 27.5357 23.4896 29.3583C23.6071 29.6053 23.7376 29.8465 23.8789 30.0798C23.8878 30.0943 23.8973 30.1091 23.9061 30.1237C23.9088 30.1283 23.9122 30.1332 23.915 30.1379C23.9224 30.1502 23.9299 30.1622 23.9374 30.1743C23.9394 30.1771 23.9415 30.1796 23.9428 30.1824C23.9517 30.1966 23.9612 30.211 23.97 30.2252C23.9727 30.2296 23.9754 30.234 23.9788 30.2384C23.9863 30.2501 23.9938 30.2617 24.0013 30.2734C24.0033 30.2768 24.0053 30.28 24.0081 30.2832C24.0176 30.298 24.0271 30.3126 24.0366 30.3272C24.0386 30.3299 24.04 30.3325 24.042 30.3352C24.0509 30.3488 24.0597 30.3623 24.0692 30.3759C24.0706 30.3777 24.0713 30.3794 24.0726 30.3811C24.7141 31.3319 25.5574 32.1452 26.5109 32.8011L26.4579 32.7562C25.8918 32.2547 25.3801 31.6809 24.9914 31.0296C24.568 30.3221 24.3519 29.553 24.2282 28.7418C23.9218 26.7222 24.1596 24.6599 24.5585 22.6708C24.9377 20.7785 25.4983 18.9304 25.9196 17.0483C26.3369 15.1888 26.6407 13.198 26.1425 11.3234L26.1453 11.2527C26.1439 11.1809 26.1976 11.1096 26.2669 11.1096C26.288 11.1096 26.3104 11.1163 26.3342 11.1317C26.5944 11.3069 26.8438 11.4956 27.0878 11.693C28.0888 12.5048 28.9708 13.464 30.0527 14.1755C31.1237 14.8785 32.3204 15.3633 33.5239 15.7882C35.6135 16.525 37.7752 17.1145 39.7132 18.2177C40.6619 18.7582 41.5413 19.4209 42.2915 20.2148C43.0791 21.0468 43.7219 22.0158 44.2595 23.0237C45.0083 24.4274 45.5431 25.9335 45.8952 27.4821C45.9312 27.3573 45.9672 27.2334 46.0005 27.1079C46.4483 25.3883 46.6141 23.6134 46.7623 21.8424C46.7691 21.7376 46.7799 21.6351 46.7874 21.5303C46.8995 20.1562 47.013 18.7819 47.1285 17.4082C47.1435 17.2161 47.1659 17.0225 47.1904 16.8262C47.2414 16.3663 47.2998 15.8988 47.2991 15.4443C47.2991 15.4139 47.2991 15.3836 47.2984 15.3535C47.2869 14.8907 47.0837 14.4134 46.9981 13.9568C46.5672 11.7116 45.8428 9.50012 44.725 7.50352C43.9537 6.12769 42.986 4.84605 41.7757 3.82305C41.7288 3.78316 41.6812 3.74388 41.6337 3.70481C39.5338 1.98336 36.906 1.07819 34.2856 1.07092C34.2748 1.07092 34.2646 1.07092 34.2537 1.07092Z" fill="#ECC1A3"/>
<path fill-rule="evenodd" clip-rule="evenodd" d="M30.7881 26.8019H38.747C38.747 26.8019 37.8854 29.5541 35.0659 29.5541C31.2244 29.5541 30.7881 26.8019 30.7881 26.8019Z" fill="#FFFFFE"/>
<path fill-rule="evenodd" clip-rule="evenodd" d="M29.6803 22.1236C29.6633 21.8989 29.6082 21.6605 29.488 21.467C29.3432 21.2329 29.0823 21.1188 28.8138 21.1911C28.5699 21.2558 28.4061 21.4579 28.3218 21.6865C28.1764 22.0784 28.2974 22.538 28.5712 22.8423C28.7479 23.0375 29.0279 23.1578 29.2719 23.0024L29.2834 22.9928C29.401 22.9428 29.5002 22.8531 29.5668 22.7311C29.6674 22.5476 29.6952 22.3307 29.6803 22.1236Z" fill="#201923"/>
<path fill-rule="evenodd" clip-rule="evenodd" d="M41.2185 22.1236C41.2022 21.8989 41.1465 21.6605 41.0269 21.467C40.8822 21.2329 40.6212 21.1188 40.3528 21.1911C40.1081 21.2558 39.9444 21.4579 39.8601 21.6865C39.7154 22.0784 39.8356 22.538 40.1102 22.8423C40.2862 23.0375 40.5662 23.1578 40.8108 23.0024L40.8217 22.9928C40.9392 22.9428 41.0384 22.8531 41.1057 22.7311C41.2063 22.5476 41.2342 22.3307 41.2185 22.1236Z" fill="#201923"/>
<path fill-rule="evenodd" clip-rule="evenodd" d="M34.329 20.885C34.259 21.7038 34.219 22.5224 34.2088 23.3441C34.2917 23.2613 34.3739 23.1787 34.4568 23.096C33.7759 23.0125 32.5819 23.408 32.8979 24.3511C33.2587 25.4279 34.3087 25.4733 35.277 25.2614C35.5889 25.1931 35.4571 24.7146 35.1452 24.783C34.6274 24.8962 34.0932 25.0061 33.6189 24.6332C33.6298 24.3145 33.6407 23.9958 33.6508 23.6772C33.9159 23.5593 34.1843 23.531 34.4568 23.5922C34.5927 23.6088 34.7035 23.4668 34.7048 23.3441C34.715 22.5224 34.7551 21.7038 34.8258 20.885C34.853 20.566 34.3569 20.5686 34.329 20.885Z" fill="#B98A6A"/>
<path fill-rule="evenodd" clip-rule="evenodd" d="M49.0718 24.7148C48.624 24.7642 48.1897 24.8766 47.7779 25.052C47.9349 24.5428 48.1639 24.0588 48.4921 23.6233C48.5839 23.5019 48.5112 23.3117 48.3923 23.2402C48.2502 23.1551 48.1007 23.2208 48.0097 23.3405C47.2044 24.4078 46.9543 25.7725 46.921 27.0811C46.9115 27.4407 47.4715 27.4407 47.4803 27.0811C47.4918 26.6386 47.5299 26.1936 47.6087 25.7581C47.8343 25.6286 48.0416 25.534 48.2774 25.4547C48.4086 25.4103 48.5418 25.3729 48.6777 25.3421C48.8238 25.3093 48.9604 25.2866 49.0718 25.274C49.2159 25.2581 49.3586 25.1572 49.3511 24.9943C49.345 24.8567 49.2274 24.6973 49.0718 24.7148Z" fill="#B98A6A"/>
<path fill-rule="evenodd" clip-rule="evenodd" d="M19.9023 24.7148C20.3501 24.7642 20.7843 24.8766 21.1955 25.052C21.0392 24.5428 20.8102 24.0588 20.4813 23.6233C20.3895 23.5019 20.4622 23.3117 20.5812 23.2402C20.7239 23.1551 20.874 23.2208 20.9644 23.3405C21.769 24.4078 22.0198 25.7725 22.0524 27.0811C22.0619 27.4407 21.5026 27.4407 21.4938 27.0811C21.4822 26.6386 21.4442 26.1936 21.3647 25.7581C21.1391 25.6286 20.9318 25.534 20.696 25.4547C20.5648 25.4103 20.4316 25.3729 20.2964 25.3421C20.1503 25.3093 20.013 25.2866 19.9023 25.274C19.7575 25.2581 19.6155 25.1572 19.6223 24.9943C19.6291 24.8567 19.7467 24.6973 19.9023 24.7148Z" fill="#B98A6A"/>
<path fill-rule="evenodd" clip-rule="evenodd" d="M48.8197 16.3365C48.8292 16.8189 48.7674 16.9535 48.7137 17.444C48.6893 17.6397 48.8347 18.8927 48.8197 19.0843C48.7042 20.4587 47.6108 20.0534 47.4994 21.4278C47.4919 21.5322 46.7682 21.7376 46.7614 21.8423C46.6139 23.6131 46.4481 25.3882 46.0003 27.1078C45.8997 27.4937 45.7842 27.8779 45.6496 28.256C45.6068 26.5144 45.3961 24.7858 44.8681 23.1135C44.1322 20.7714 42.7751 18.7019 40.7704 17.2589C38.7324 15.7934 36.3397 14.9617 33.9796 14.1807C31.5373 13.3695 29.0236 12.5754 26.8735 11.1187C26.4767 10.8503 26.092 10.5594 25.7271 10.2446C24.7873 9.44416 23.9705 8.50311 23.3867 7.42323C23.7897 6.82115 23.823 5.39007 24.2987 4.85302C26.1967 2.70168 29.114 1.53462 31.7765 0.911808C35.2409 0.102526 39.6593 0.91697 42.4713 3.29779C43.6809 4.32181 45.4913 6.03374 46.2632 7.40984C47.3804 9.40678 48.3678 10.7253 48.7987 12.9704C48.8843 13.4266 48.8089 15.8738 48.8197 16.3365Z" fill="#50382B"/>
<path fill-rule="evenodd" clip-rule="evenodd" d="M24.9158 15.9198C24.4999 17.8724 24.1642 19.8434 23.9522 21.829C23.6572 24.5681 23.5954 27.3407 23.8788 30.0798C23.7374 29.8466 23.6069 29.6057 23.4894 29.3584C22.6284 27.5359 22.5217 25.4632 22.2757 23.4639C22.2254 23.0596 22.1697 22.6567 22.1058 22.2542C21.7891 20.21 20.3131 19.903 19.6757 17.9338C19.3441 16.9103 20.379 13.4261 20.6346 12.3949C20.9125 11.2855 21.2822 10.1102 21.7633 9.07135C22.1248 8.28837 22.6515 7.26598 23.1272 6.55768C23.5295 5.95559 24.2314 6.24678 24.7071 5.70959C25.3072 7.11172 25.6524 8.61666 25.7231 10.1419C25.7251 10.1752 25.7271 10.2105 25.7271 10.2446C25.7958 12.1779 25.3147 14.0426 24.9158 15.9198Z" fill="#50382B"/>
</svg>
