<svg width="60" height="88" viewBox="0 0 60 88" fill="none" xmlns="http://www.w3.org/2000/svg">
<path fill-rule="evenodd" clip-rule="evenodd" d="M43.5774 30.821C44.4724 30.3604 44.8164 29.2518 44.8394 28.3121C44.8643 27.2932 44.5268 26.2703 43.9048 25.4638C43.6406 25.1229 43.281 24.7765 42.8768 24.5547C42.967 24.1284 42.9724 23.6895 42.9073 23.2594C42.5937 21.1812 40.6136 19.8443 38.5804 19.93C37.4012 19.9799 36.2838 20.488 35.3966 21.2532C35.1977 21.4242 34.9768 21.6421 34.7744 21.8871C34.6235 21.5207 34.4104 21.1767 34.1512 20.875C33.4439 20.0534 32.397 19.5258 31.3299 19.3749C30.1056 19.202 28.8662 19.5087 27.7718 20.0568C26.6821 20.6017 25.6564 21.3981 24.8955 22.3545C24.6947 22.6063 24.5114 22.8719 24.3533 23.1511C24.0197 22.5838 23.5052 22.1101 22.9214 21.8406C21.6269 21.2424 20.0264 21.41 18.9222 22.3286C18.4759 22.7003 18.1069 23.2402 18.0496 23.8256C17.8042 24.0064 17.5936 24.2357 17.4309 24.4948C16.5427 24.4263 15.6404 25.0294 15.5404 25.9808C15.4635 26.7161 15.8799 27.3927 16.4849 27.7081C16.1621 28.5268 16.242 29.4826 16.6329 30.266C16.6887 30.378 16.7543 30.4854 16.8259 30.5872C16.2229 31.2363 15.8721 32.101 15.8368 32.9853C15.8 33.9029 16.1274 34.8131 16.7794 35.4648C17.2139 35.8987 17.7846 36.2172 18.3911 36.3357C18.394 36.7458 18.4793 37.1554 18.6581 37.5434C19.004 38.2953 19.6874 38.9141 20.4958 39.1213C21.1488 39.2884 21.8563 39.1816 22.4466 38.8612C22.6313 39.1879 22.8713 39.4844 23.1604 39.7229C23.8756 40.3132 24.8181 40.5397 25.7308 40.4196C26.8708 40.2691 27.8829 39.5486 28.5002 38.58C28.8602 39.0331 29.3521 39.381 29.8906 39.5887C30.9934 40.0129 32.1594 39.6959 32.9599 38.942C33.2302 39.4153 33.5912 39.8371 34.0434 40.1208C34.7925 40.5889 35.7028 40.4896 36.3474 39.8901C36.5772 39.6763 36.7535 39.4153 36.8835 39.1283C37.6011 39.8268 38.6063 40.2305 39.6181 40.107C41.2544 39.9071 42.6835 38.4889 42.6653 36.7997C42.6647 36.7306 42.659 36.6615 42.6535 36.5925L42.7236 36.587C43.5544 36.4783 44.0792 35.7493 44.2897 34.9895C44.6719 33.6104 44.249 32.0476 43.3824 30.9038C43.449 30.8797 43.5147 30.8534 43.5774 30.821Z" fill="#50382B"/>
<path fill-rule="evenodd" clip-rule="evenodd" d="M57.328 79.3069C56.6 76.0721 56.1281 72.7876 55.7019 69.5014C55.4232 67.3491 55.2393 65.1673 54.9328 63.0121C54.6466 60.9992 53.9972 59.0586 52.5573 57.5707C50.1709 55.1038 46.7695 53.8843 43.6708 52.5925C42.0262 51.9061 40.3899 51.1682 38.8674 50.2378C37.4923 49.397 37.1041 47.3731 36.8097 45.8945C36.1039 42.3491 35.8898 38.7255 35.6771 35.115C33.9472 35.3007 32.2351 35.3074 30.4969 35.3858V35.3515C30.3073 35.3594 30.1119 35.3683 29.9144 35.3776C29.7161 35.3683 29.5205 35.3594 29.3315 35.3515V35.3858C27.5933 35.3074 25.8811 35.3007 24.1513 35.115C23.9391 38.7255 23.725 42.3491 23.0191 45.8945C22.7241 47.3731 22.3362 49.397 20.9609 50.2378C19.4383 51.1682 17.8022 51.9061 16.158 52.5925C13.0589 53.8843 9.65753 55.1038 7.2707 57.5707C5.83129 59.0586 5.18179 60.9992 4.89573 63.0121C4.58902 65.1673 4.40536 67.3491 4.12658 69.5014C3.70029 72.7876 3.22895 76.0721 2.50098 79.3069C1.83818 82.2497 1.023 85.1612 0 87.9999H59.829C58.8054 85.1612 57.9901 82.2497 57.328 79.3069Z" fill="#F3C8AC"/>
<path fill-rule="evenodd" clip-rule="evenodd" d="M57.328 79.3069C56.6 76.0721 56.1281 72.7876 55.7019 69.5014C55.4232 67.3491 55.2393 65.1673 54.9328 63.0121C54.6466 60.9992 53.9972 59.0585 52.5573 57.5707C50.1709 55.1038 46.7695 53.8843 43.6708 52.5924C42.0262 51.906 40.3899 51.1682 38.8674 50.2378C37.6485 49.4924 37.2056 47.8177 36.9152 46.4178C36.2399 46.9278 35.5252 47.3875 34.783 47.7744C34.0168 48.1734 33.1359 48.411 32.288 48.5544C31.4228 48.7013 30.5415 48.7406 29.6666 48.6834C27.9676 48.5701 26.3357 48.0884 24.8033 47.3592C24.1532 47.0498 23.5242 46.6849 22.9466 46.2559C22.656 47.6865 22.2274 49.4635 20.9609 50.2378C19.4383 51.1682 17.8022 51.906 16.158 52.5924C13.0589 53.8843 9.65753 55.1038 7.2707 57.5707C5.83129 59.0585 5.18179 60.9992 4.89573 63.0121C4.58902 65.1673 4.40536 67.3491 4.12658 69.5014C3.70029 72.7876 3.22895 76.0721 2.50098 79.3069C1.83818 82.2497 1.023 85.1612 0 87.9999H59.829C58.8054 85.1612 57.9901 82.2497 57.328 79.3069Z" fill="#45C3C1"/>
<path fill-rule="evenodd" clip-rule="evenodd" d="M23.8058 40.1321C23.7986 40.2141 23.7913 40.2962 23.7837 40.3781C23.784 40.3783 23.784 40.3785 23.7843 40.3786C23.7917 40.2967 23.7991 40.2144 23.8064 40.1324C23.8062 40.1323 23.806 40.1323 23.8058 40.1321Z" fill="#F4CBD5"/>
<path fill-rule="evenodd" clip-rule="evenodd" d="M23.8643 39.4404C23.8457 39.6712 23.8261 39.9016 23.8057 40.132C23.8058 40.1322 23.8061 40.1322 23.8062 40.1323C23.8267 39.9019 23.8461 39.6713 23.8649 39.4407C23.8647 39.4405 23.8644 39.4405 23.8644 39.4405" fill="#6B252B"/>
<path fill-rule="evenodd" clip-rule="evenodd" d="M36.0229 40.137C36.0229 40.137 36.0226 40.1371 36.0225 40.1373C36.1828 41.9449 36.4007 43.745 36.7381 45.5272C36.7386 45.5272 36.7393 45.5278 36.7399 45.5284C36.4021 43.7456 36.1836 41.9449 36.0229 40.137Z" fill="#F4CBD5"/>
<path fill-rule="evenodd" clip-rule="evenodd" d="M35.9915 39.7756H35.9912C36.0014 39.8963 36.0118 40.0167 36.0225 40.1373C36.0227 40.1372 36.0228 40.1372 36.0228 40.1372C36.0122 40.0165 36.0017 39.8961 35.9915 39.7756Z" fill="#6B252B"/>
<path fill-rule="evenodd" clip-rule="evenodd" d="M23.8649 39.4407C23.8462 39.6713 23.8267 39.9019 23.8063 40.1323C23.799 40.2143 23.7916 40.2966 23.7842 40.3786C23.8339 40.4279 23.8842 40.4766 23.9364 40.5237C24.9511 41.4391 26.2507 41.9896 27.5348 42.41C28.928 42.8662 30.363 43.1773 31.7852 43.5278C33.1712 43.8689 34.561 44.2413 35.8171 44.9381C36.1359 45.1151 36.4438 45.3123 36.7382 45.5274C36.4008 43.7452 36.1829 41.9451 36.0226 40.1374C36.0119 40.0169 36.0015 39.8964 35.9913 39.7758C34.2314 40.291 32.376 40.4315 30.5347 40.4315C30.3747 40.4315 30.2151 40.4306 30.0554 40.4286C28.1486 40.4055 26.2199 40.2527 24.4137 39.6427C24.2293 39.5806 24.0462 39.5132 23.8649 39.4407Z" fill="#ECC1A3"/>
<path fill-rule="evenodd" clip-rule="evenodd" d="M20.7196 31.2061C20.2258 29.9357 19.7319 28.6654 19.2382 27.3956C18.9922 26.3584 17.9914 25.6922 16.9406 25.8676C15.9181 26.0386 15.3175 26.9694 15.1279 27.9226C14.7654 29.7462 15.5281 32.0879 17.5843 32.4401C18.6836 32.6287 19.8012 32.253 20.6343 31.5289C20.7152 31.4594 20.7593 31.308 20.7196 31.2061Z" fill="#F3C8AC"/>
<path fill-rule="evenodd" clip-rule="evenodd" d="M39.735 31.2061C40.2288 29.9357 40.7226 28.6654 41.2165 27.3956C41.4624 26.3584 42.4632 25.6922 43.5136 25.8676C44.5364 26.0386 45.1371 26.9694 45.3274 27.9226C45.69 29.7462 44.9265 32.0879 42.8703 32.4401C41.771 32.6287 40.6537 32.253 39.8207 31.5289C39.7394 31.4594 39.6953 31.308 39.735 31.2061Z" fill="#F3C8AC"/>
<path fill-rule="evenodd" clip-rule="evenodd" d="M42.7904 30.3527C42.7706 32.2124 42.513 34.0843 41.5989 35.6853C40.5147 37.5827 38.5934 38.902 36.5249 39.6069C34.4576 40.3124 32.2398 40.4555 30.0553 40.4286C28.1486 40.4055 26.2198 40.2527 24.4136 39.6427C22.6069 39.0333 20.9172 37.9277 19.8933 36.3192C17.8485 33.1069 18.38 28.7684 17.9681 25.1539C17.8156 23.8229 17.5922 22.4988 17.2375 21.2069C16.8917 19.9492 17.1278 18.9028 17.4364 17.6561C17.697 16.6149 18.0477 15.5984 18.4986 14.624C20.2798 10.7695 23.6141 7.74779 27.4637 6.84825C30.7084 6.08841 34.2679 6.92174 36.9018 9.15181C38.0333 10.1106 38.9416 11.3103 39.6632 12.5978C40.915 14.8352 41.7219 17.3763 42.0981 19.9492C42.3083 21.3895 42.1613 22.772 42.3421 24.1966C42.5537 25.8692 42.7218 27.5495 42.7761 29.2358C42.7884 29.6057 42.7937 29.979 42.7904 30.3527Z" fill="#F3C8AC"/>
<path fill-rule="evenodd" clip-rule="evenodd" d="M29.8488 6.57373C29.0653 6.57431 28.2832 6.66093 27.5176 6.83591C28.2829 6.66093 29.0654 6.57442 29.8488 6.57373Z" fill="#F4CBD5"/>
<path fill-rule="evenodd" clip-rule="evenodd" d="M17.9683 25.1538C17.9823 25.2837 17.9956 25.415 18.0084 25.5462L18.0091 25.5465C17.9965 25.4148 17.983 25.2837 17.9683 25.1538Z" fill="#6B252B"/>
<path fill-rule="evenodd" clip-rule="evenodd" d="M29.8578 6.57373C29.8548 6.57373 29.8515 6.57373 29.8483 6.57373C29.065 6.57442 28.2825 6.66093 27.5171 6.83591C27.4992 6.83996 27.4815 6.84407 27.4636 6.84817C23.6141 7.74771 20.2797 10.7694 18.4985 14.6239C18.0477 15.5984 17.6969 16.6148 17.4363 17.656C17.2363 18.4644 17.0664 19.1886 17.0664 19.9408C17.0661 20.3486 17.1159 20.7646 17.2374 21.2068C17.5921 22.4987 17.8155 23.8228 17.968 25.1539C17.9827 25.2838 17.9963 25.4148 18.0088 25.5466C18.6627 25.7737 19.3855 25.8583 20.0676 25.8593C20.0698 25.8593 20.0719 25.8593 20.0742 25.8593C21.0478 25.8593 22.0208 25.6402 22.8831 25.1827C23.6737 24.763 24.5301 24.1662 24.8505 23.2918C24.8694 23.2399 24.9225 23.2013 24.9752 23.2013C25.0031 23.2013 25.0308 23.2121 25.0534 23.2378C25.3219 23.5441 25.7563 23.6547 26.1419 23.7228C26.4549 23.7778 26.7792 23.8094 27.1033 23.8094C27.5433 23.8094 27.9834 23.7514 28.395 23.615C29.1891 23.353 29.9651 22.8293 30.3144 22.0465C30.333 22.0049 30.3718 21.9867 30.4118 21.9867C30.456 21.9867 30.5019 22.0089 30.5245 22.0465C30.8807 22.6338 31.6058 22.9228 32.2349 23.1075C32.9482 23.3172 33.7154 23.447 34.4759 23.447C35.0461 23.447 35.6125 23.3742 36.1505 23.2075C37.6223 22.7514 38.9411 21.6487 39.2693 20.0922C39.28 20.041 39.3367 20.0022 39.3904 20.0022C39.4107 20.0022 39.4307 20.0078 39.4477 20.0201C40.0811 20.4865 40.551 21.1156 40.8635 21.8353C41.2058 22.626 41.3729 23.4883 41.5336 24.3308C41.8594 26.041 42.048 27.7763 42.4492 29.4718C42.5521 29.9058 42.6703 30.3346 42.781 30.7653C42.7853 30.628 42.7887 30.4903 42.7903 30.3527C42.7908 30.2826 42.7913 30.2125 42.7913 30.1425C42.7913 29.8391 42.7859 29.5362 42.776 29.2358C42.7405 28.1352 42.6566 27.0372 42.5438 25.9423C42.4837 25.3595 42.4154 24.7776 42.3421 24.1965C42.2316 23.3267 42.2434 22.4726 42.2214 21.6113C42.2075 21.0621 42.1797 20.51 42.098 19.9491C41.7218 17.3762 40.9149 14.8351 39.6631 12.5978C38.9415 11.3102 38.0332 10.1105 36.9017 9.15173C36.8666 9.12201 36.8313 9.09269 36.796 9.06355C34.8326 7.44372 32.3725 6.58738 29.9169 6.57373C29.8972 6.57373 29.8775 6.57373 29.8578 6.57373Z" fill="#ECC1A3"/>
<path fill-rule="evenodd" clip-rule="evenodd" d="M26.6094 30.6753H34.0645C34.0645 30.6753 33.2571 33.2537 30.6167 33.2537C27.0176 33.2537 26.6094 30.6753 26.6094 30.6753Z" fill="#FFFFFE"/>
<path fill-rule="evenodd" clip-rule="evenodd" d="M24.6699 26.2942C24.6544 26.0831 24.6026 25.8603 24.4902 25.6784C24.355 25.46 24.1105 25.3531 23.8589 25.4199C23.6303 25.4811 23.4765 25.67 23.3976 25.8846C23.2622 26.2511 23.3749 26.6822 23.6315 26.9666C23.7969 27.1501 24.0592 27.2625 24.2876 27.1173L24.2983 27.108C24.4082 27.0612 24.5015 26.9767 24.564 26.8626C24.6584 26.6914 24.6846 26.4879 24.6699 26.2942Z" fill="black"/>
<path fill-rule="evenodd" clip-rule="evenodd" d="M37.3698 26.2942C37.3541 26.0831 37.3019 25.8603 37.1895 25.6784C37.0543 25.46 36.8098 25.3531 36.5582 25.4199C36.3297 25.4811 36.1759 25.67 36.0967 25.8846C35.9615 26.2511 36.0742 26.6822 36.3308 26.9666C36.4965 27.1501 36.7585 27.2625 36.9872 27.1173L36.9977 27.108C37.1076 27.0612 37.2008 26.9767 37.2636 26.8626C37.358 26.6914 37.3839 26.4879 37.3698 26.2942Z" fill="black"/>
<path fill-rule="evenodd" clip-rule="evenodd" d="M30.4001 25.1338C30.3344 25.9006 30.2968 26.6672 30.2874 27.4369C30.3649 27.3594 30.4423 27.282 30.5198 27.2045C29.8816 27.1259 28.7641 27.4969 29.0595 28.38C29.397 29.3889 30.381 29.4313 31.2877 29.2327C31.5804 29.1686 31.4562 28.7205 31.164 28.7845C30.6799 28.8905 30.1786 28.9936 29.7345 28.6443C29.7445 28.3458 29.7547 28.0474 29.7646 27.7491C30.0129 27.6382 30.2646 27.6116 30.5198 27.6693C30.6469 27.685 30.7508 27.5517 30.7523 27.4369C30.7617 26.6672 30.7993 25.9006 30.8649 25.1338C30.8906 24.835 30.4254 24.8375 30.4001 25.1338Z" fill="#B98A6A"/>
<path fill-rule="evenodd" clip-rule="evenodd" d="M44.4605 28.7208C44.0413 28.767 43.6345 28.8725 43.2494 29.0366C43.3958 28.5601 43.6105 28.1064 43.9185 27.6983C44.0044 27.5846 43.9359 27.4064 43.8244 27.3399C43.6911 27.2601 43.5508 27.3214 43.466 27.434C42.7118 28.4334 42.4774 29.7114 42.4464 30.937C42.4377 31.2746 42.9617 31.2741 42.9701 30.937C42.9809 30.5229 43.0163 30.1062 43.0905 29.6984C43.302 29.5767 43.4962 29.4878 43.7167 29.4139C43.8399 29.3725 43.965 29.3373 44.0914 29.3086C44.2284 29.2772 44.3569 29.256 44.4605 29.245C44.5963 29.2295 44.7293 29.1352 44.7228 28.9827C44.7169 28.8537 44.6064 28.7044 44.4605 28.7208Z" fill="#B98A6A"/>
<path fill-rule="evenodd" clip-rule="evenodd" d="M16.0965 28.7208C16.5156 28.767 16.9227 28.8725 17.3076 29.0366C17.1614 28.5601 16.9464 28.1064 16.6385 27.6983C16.5528 27.5846 16.6213 27.4064 16.7326 27.3399C16.8659 27.2601 17.0062 27.3214 17.091 27.434C17.8455 28.4334 18.0798 29.7114 18.1105 30.937C18.1193 31.2746 17.5953 31.2741 17.5868 30.937C17.5764 30.5229 17.5406 30.1062 17.4665 29.6984C17.2549 29.5767 17.0608 29.4878 16.8405 29.4139C16.7174 29.3725 16.5923 29.3373 16.4658 29.3086C16.3286 29.2772 16.2001 29.256 16.0965 29.245C15.9607 29.2295 15.8277 29.1352 15.8347 28.9827C15.8404 28.8537 15.9505 28.7044 16.0965 28.7208Z" fill="#B98A6A"/>
<path fill-rule="evenodd" clip-rule="evenodd" d="M45.3222 20.501C45.9473 19.5209 46.2613 18.2931 45.9722 17.1469C45.7114 16.1162 44.9805 15.1988 43.9758 14.8176C43.8527 14.7709 43.7262 14.7351 43.5983 14.709C43.9071 13.7416 43.9693 12.6761 43.8417 11.6784C43.6916 10.5024 43.212 9.35458 42.2595 8.60741C41.2788 7.83844 40.0676 7.74043 38.9207 8.18904C38.6694 8.28769 38.4246 8.40415 38.1851 8.5305L38.1966 8.49714C38.6491 7.15916 38.9379 5.66771 38.5339 4.28041C38.1955 3.11816 37.385 2.08082 36.2085 1.69726C34.9195 1.27692 33.4495 1.66667 32.2926 2.29026C31.81 2.5506 31.3553 2.91305 31.004 3.34426C30.977 3.28158 30.9496 3.2186 30.9223 3.15592C30.4712 2.12367 29.8114 1.10882 28.8394 0.500143C27.7447 -0.186136 26.4464 -0.116109 25.3009 0.406927C24.1483 0.933491 23.069 1.86617 22.4509 2.97955C22.2277 3.38144 22.0748 3.81178 22.0004 4.25103C21.1355 3.93027 20.183 3.87476 19.2871 4.13451C18.1869 4.45325 17.2304 5.19099 16.5973 6.13963C15.9254 7.14678 15.6913 8.36981 15.8609 9.56085L15.8688 9.60971C14.7675 9.33192 13.5749 9.36968 12.5201 9.71449C10.3277 10.4312 8.85222 12.4597 8.47248 14.6897C8.07608 17.0169 8.84604 19.576 10.7123 21.0938C11.305 21.5758 12.0133 21.9503 12.7607 22.1203C13.3422 23.4544 14.5365 24.5586 15.8504 25.1096C18.2894 26.1327 21.162 25.3753 23.2366 23.8847C23.701 23.5515 24.1407 23.1727 24.536 22.7539C25.6675 23.2258 26.9688 23.2403 28.1255 22.8423C29.1967 22.4739 30.1219 21.7757 30.851 20.9174C30.9079 20.9784 30.966 21.0373 31.0257 21.0938C31.9033 21.9213 33.0677 22.2898 34.2617 22.1231C35.5644 21.9411 36.7054 21.1961 37.718 20.3982C37.9873 20.1862 38.2505 19.9659 38.5102 19.7422C38.7105 19.5704 38.992 19.2452 39.2878 19.3158C39.569 19.3828 39.8326 19.6968 40.0324 19.8925C40.2414 20.0977 40.4387 20.3156 40.6232 20.5436C41.3732 21.4719 41.8932 22.5857 42.16 23.747C42.4172 24.8682 42.4288 26.0405 42.1716 27.1626C42.0967 27.4911 42.6015 27.6311 42.6768 27.3018C42.7164 27.1286 42.748 26.9544 42.7762 26.7794C42.8596 26.8119 42.9509 26.8293 43.0475 26.8253C43.3678 26.8134 43.6002 26.5855 43.7755 26.3386C44.1975 25.7425 44.5086 25.0426 44.7357 24.3509C45.0269 23.4621 45.2488 22.1332 44.5584 21.4227C44.8641 21.1425 45.1262 20.8078 45.3222 20.501Z" fill="#50382B"/>
</svg>
