<svg width="313" height="283" viewBox="0 0 313 283" fill="none" xmlns="http://www.w3.org/2000/svg">
<path fill-rule="evenodd" clip-rule="evenodd" d="M306.487 240.411C305.894 237.043 304.979 233.744 304.295 230.391C303.582 226.908 303.285 223.449 303.488 219.895C303.873 213.174 305.574 206.456 304.815 199.701C304.226 194.468 301.968 189.901 298.502 185.987C292.116 178.775 283.117 174.388 277.01 166.896C273.293 162.338 271.552 156.831 271.918 150.951C272.354 143.925 275.377 137.673 278.185 131.352C280.819 125.425 283.017 118.892 280.473 112.539C279.318 109.656 277.546 107.101 276.062 104.386C274.401 101.353 273.473 98.1392 273.19 94.6935C272.649 88.0719 273.858 81.4075 272.752 74.8159C271.816 69.2418 269.348 63.9798 265.936 59.5007C258.47 49.7011 247.07 44.1966 235.003 42.6572C228.635 41.8459 222.186 42.1215 215.862 43.1502C215.44 43.2196 215.28 43.538 215.313 43.8623C207.411 45.6935 199.506 48.9324 194.372 55.1744C192.815 57.0649 191.579 59.1791 190.734 61.4795C189.633 64.4793 189.31 67.6771 188.631 70.7827C187.982 73.7603 186.92 76.5712 184.813 78.8286C183.015 80.7552 180.763 82.1642 178.453 83.3945C173.86 85.8394 168.804 87.6464 164.872 91.1678C160.999 94.6355 158.54 99.5838 157.783 104.698C157.023 109.834 157.902 115.128 160.606 119.591C163.786 124.847 168.686 129.168 168.614 135.775C168.547 141.887 164.857 147.472 160.647 151.628C155.955 156.262 149.921 159.145 144.931 163.413C140.504 167.197 136.684 172.636 137.04 178.717C137.356 184.134 140.684 188.668 143.225 193.254C144.537 195.62 145.729 198.124 146.122 200.83C146.501 203.436 146.027 206.067 145.038 208.488C142.993 213.505 139.195 217.6 136.28 222.103C134.818 224.362 133.526 226.759 132.74 229.342C131.765 232.543 131.559 235.961 131.923 239.276C132.556 245.076 134.672 251.15 138.766 255.435C140.696 257.452 143.11 258.979 145.813 259.717C149 260.586 152.35 260.387 155.587 259.959C159.063 259.5 162.501 258.834 166.009 258.622C169.572 258.41 173.157 258.529 176.701 258.973C180.24 259.414 183.746 260.208 187.141 261.307C190.351 262.345 193.442 263.701 196.581 264.93C202.357 267.189 208.354 268.785 214.539 267.327C225.173 264.82 233.071 255.747 243.935 253.938C256.216 251.89 266.356 261.819 277.522 265.002C286.688 267.615 298.126 265.062 303.863 257.023C307.344 252.151 307.486 246.114 306.487 240.411Z" fill="#50382B"/>
<path fill-rule="evenodd" clip-rule="evenodd" d="M303.51 219.531C303.508 219.549 303.506 219.568 303.506 219.588C303.506 219.57 303.508 219.549 303.51 219.531Z" fill="#DFAAA0"/>
<path fill-rule="evenodd" clip-rule="evenodd" d="M188.799 120.125C189.202 121.397 189.792 122.623 190.389 123.709C191.854 126.378 193.865 128.684 195.644 131.142C197.491 133.692 198.943 136.461 199.665 139.546C200.44 142.869 200.388 146.328 199.985 149.696C199.626 152.681 198.988 155.613 197.866 158.412C196.035 162.983 192.998 166.836 189.281 170.029C185.262 173.484 180.706 176.38 176.23 179.201C173.518 180.912 170.699 182.446 167.928 184.058C168.298 184.412 168.663 184.772 169.02 185.142C169.407 185.54 169.775 185.949 170.126 186.368C175.069 183.714 180.41 181.669 185.474 179.558C191.047 177.233 196.563 174.673 201.619 171.346C204.07 169.732 206.438 168.09 208.126 165.657C209.796 163.253 210.774 160.428 211.479 157.603C212.889 151.965 213.311 146.127 213.677 140.325C213.692 140.098 213.705 139.87 213.716 139.641L213.714 139.639C213.772 138.547 213.807 137.443 213.843 136.334C211.715 135.728 209.645 134.943 207.669 133.943C203.693 131.933 200.111 129.002 197.63 125.323C197.628 125.319 197.625 125.314 197.621 125.309C197.595 125.272 197.571 125.235 197.547 125.198C197.541 125.19 197.537 125.183 197.532 125.176C197.506 125.136 197.48 125.096 197.454 125.055C197.446 125.046 197.441 125.038 197.435 125.029C197.415 124.997 197.394 124.965 197.374 124.933C197.364 124.921 197.357 124.909 197.349 124.897C197.325 124.858 197.299 124.818 197.275 124.78C197.271 124.772 197.266 124.765 197.26 124.757C197.24 124.724 197.219 124.691 197.199 124.658C197.191 124.645 197.182 124.632 197.175 124.619C197.151 124.578 197.124 124.539 197.1 124.499C196.713 123.86 196.356 123.2 196.035 122.524C195.711 121.838 195.427 121.139 195.174 120.429C194.257 120.687 193.309 120.825 192.349 120.825C191.797 120.825 191.242 120.779 190.688 120.684C190.011 120.568 189.381 120.378 188.799 120.125ZM256.372 120.346C255.043 123.872 253.155 127.18 250.546 129.876C246.505 134.042 241.107 136.387 235.353 137.445C235.385 138.412 235.424 139.375 235.483 140.325C235.719 144.061 235.983 147.81 236.512 151.513L236.51 151.509C236.803 153.558 237.181 155.593 237.683 157.603C238.388 160.428 239.364 163.253 241.036 165.657C242.725 168.09 245.092 169.732 247.543 171.346C252.597 174.673 258.113 177.233 263.688 179.558C271.166 182.677 278.965 185.579 285.476 190.522C296.28 198.723 297.905 216.074 300.161 228.36C301.822 237.4 303.176 246.499 304.801 255.546C306.428 252.63 307.033 249.382 307.025 246.081C307.02 244.189 306.815 242.281 306.488 240.411C305.894 237.043 304.979 233.744 304.295 230.391C303.726 227.615 303.423 224.855 303.425 222.051C303.427 221.335 303.447 220.617 303.488 219.895C303.492 219.828 303.496 219.761 303.499 219.693C303.503 219.659 303.505 219.624 303.507 219.588C303.507 219.568 303.509 219.549 303.51 219.531C303.678 216.922 304.035 214.311 304.355 211.696C303.806 210.671 303.274 209.63 302.78 208.568C301.353 205.491 300.066 202.346 298.508 199.33C296.994 196.404 295.202 193.503 293.07 190.987C290.954 188.488 288.485 186.305 285.853 184.363C281.185 180.919 276.062 178.306 270.878 175.746C266.215 173.443 261.514 171.117 257.321 168.011C253.213 164.963 249.724 161.146 247.521 156.498C245.445 152.123 244.395 147.31 245.977 142.611C248.77 134.304 257.183 129.255 259.716 120.822C259.636 120.823 259.556 120.825 259.474 120.825C258.42 120.825 257.375 120.658 256.372 120.346Z" fill="#50382B"/>
<path fill-rule="evenodd" clip-rule="evenodd" d="M312.783 283C310.084 279.191 308.76 274.444 307.693 269.836C304.52 256.138 302.7 242.179 300.161 228.36C297.906 216.074 296.28 198.723 285.476 190.522C278.965 185.579 271.166 182.676 263.688 179.558C258.113 177.233 252.597 174.673 247.543 171.346C245.092 169.732 242.725 168.09 241.036 165.657C239.364 163.253 238.388 160.428 237.683 157.603C236.274 151.965 235.85 146.127 235.483 140.325C235.251 136.634 235.342 132.769 234.81 129.116C234.78 128.911 229.93 129.055 224.58 129.316C219.232 129.055 214.382 128.911 214.352 129.116C213.82 132.769 213.91 136.634 213.677 140.325C213.311 146.127 212.889 151.965 211.479 157.603C210.774 160.428 209.796 163.253 208.126 165.657C206.438 168.09 204.07 169.732 201.619 171.346C196.563 174.673 191.047 177.233 185.474 179.558C176.421 183.333 166.483 186.894 159.508 194.104C155.305 198.446 153.406 204.116 152.57 209.998C151.677 216.293 151.138 222.67 150.321 228.957C149.079 238.558 147.701 248.152 145.574 257.603C143.639 266.202 141.256 274.704 138.268 283H312.783Z" fill="#F3C8AC"/>
<path fill-rule="evenodd" clip-rule="evenodd" d="M307.693 269.836C304.52 256.138 302.7 242.179 300.161 228.36C297.906 216.072 296.28 198.723 285.476 190.522C278.965 185.579 271.166 182.676 263.69 179.558C262.348 178.998 261.01 178.425 259.683 177.828C259.335 182.981 258.533 188.229 256.687 193.066C255.188 196.996 253.038 200.655 250.388 203.919C247.787 207.123 244.696 209.939 241.25 212.209C237.938 214.389 234.273 216.072 230.416 217.015C226.698 217.924 222.808 218.127 219.035 217.446C215.089 216.73 211.377 215.025 208.206 212.581C204.329 209.591 201.299 205.604 199.007 201.304C196.366 196.352 194.696 190.926 193.684 185.421C193.136 182.437 192.779 179.422 192.563 176.396C190.229 177.52 187.858 178.561 185.474 179.558C176.419 183.333 166.483 186.894 159.508 194.104C155.305 198.446 153.406 204.116 152.57 209.998C151.675 216.293 151.138 222.67 150.323 228.957C149.079 238.558 147.701 248.152 145.574 257.603C143.639 266.202 141.257 274.704 138.268 283H312.783C310.084 279.191 308.76 274.444 307.693 269.836Z" fill="#784DC7"/>
<path fill-rule="evenodd" clip-rule="evenodd" d="M213.843 136.334C213.807 137.443 213.772 138.547 213.714 139.639L213.716 139.641C213.776 138.549 213.809 137.445 213.846 136.336C213.845 136.334 213.845 136.334 213.843 136.334ZM235.483 140.325C235.719 144.059 235.978 147.808 236.51 151.509L236.512 151.513C235.983 147.81 235.719 144.061 235.483 140.325Z" fill="#B4484E"/>
<path fill-rule="evenodd" clip-rule="evenodd" d="M213.846 136.336C213.809 137.445 213.775 138.549 213.716 139.641C213.853 139.762 213.997 139.877 214.142 139.983C216.368 141.657 219.276 141.729 221.874 142.415C224.615 143.143 227.304 144.353 229.742 145.793C232.238 147.265 234.562 149.101 236.394 151.357L236.509 151.509C235.977 147.808 235.719 144.059 235.483 140.325C235.423 139.375 235.384 138.412 235.353 137.445C232.747 137.923 230.071 138.138 227.414 138.138C226.155 138.138 224.9 138.09 223.659 137.999C220.349 137.757 217.033 137.246 213.846 136.336Z" fill="#ECC1A3"/>
<path fill-rule="evenodd" clip-rule="evenodd" d="M199.849 117.078C198.407 113.365 196.963 109.656 195.521 105.943C194.802 102.916 191.878 100.969 188.808 101.482C185.82 101.98 184.064 104.698 183.512 107.485C182.454 112.813 184.682 119.654 190.688 120.684C193.9 121.233 197.165 120.136 199.6 118.022C199.836 117.817 199.964 117.374 199.849 117.078Z" fill="#F3C8AC"/>
<path fill-rule="evenodd" clip-rule="evenodd" d="M251.974 117.078C253.419 113.365 254.86 109.656 256.302 105.943C257.021 102.916 259.947 100.969 263.015 101.482C266.003 101.98 267.757 104.698 268.311 107.485C269.371 112.813 267.143 119.654 261.137 120.684C257.923 121.233 254.66 120.136 252.225 118.022C251.989 117.817 251.859 117.374 251.974 117.078Z" fill="#F3C8AC"/>
<path fill-rule="evenodd" clip-rule="evenodd" d="M261.188 84.1995C261.215 85.5213 261.042 86.8872 260.893 88.2295C260.826 88.7667 260.764 89.2964 260.724 89.8223C260.407 93.5813 260.097 97.3422 259.79 101.103C259.77 101.389 259.74 101.67 259.721 101.957C259.316 106.803 258.862 111.66 257.637 116.366C257.363 117.421 257.045 118.472 256.677 119.507C255.336 123.345 253.361 126.968 250.546 129.876C243.81 136.818 233.303 138.707 223.659 137.999C218.14 137.595 212.607 136.442 207.668 133.943C203.399 131.786 199.586 128.565 197.1 124.498C196.713 123.86 196.356 123.2 196.034 122.524C193.678 117.537 193.386 111.865 192.713 106.393C192.575 105.287 192.423 104.184 192.248 103.083C191.382 97.4899 190.059 91.9599 188.313 86.5705C187.406 83.769 188.508 80.3112 189.208 77.4881C189.968 74.4533 190.993 71.4788 192.31 68.6353C193.299 66.4943 194.452 64.4366 195.754 62.4974C196.856 60.8507 198.065 59.2783 199.367 57.8087C204.561 51.9194 211.213 47.6199 218.501 45.9135C227.981 43.7 238.38 46.1278 246.075 52.6458C249.387 55.4453 252.035 58.9525 254.146 62.7175C257.205 68.1813 259.188 74.2331 260.367 80.3774C260.601 81.6269 261.157 82.9329 261.188 84.1995Z" fill="#F3C8AC"/>
<path fill-rule="evenodd" clip-rule="evenodd" d="M197.175 124.619C197.182 124.632 197.192 124.644 197.199 124.658C197.192 124.645 197.182 124.631 197.175 124.619ZM197.26 124.757C197.266 124.764 197.272 124.772 197.275 124.78C197.272 124.772 197.266 124.765 197.26 124.757Z" fill="#B4484E"/>
<path fill-rule="evenodd" clip-rule="evenodd" d="M225.491 45.1145C225.48 45.1145 225.467 45.1145 225.454 45.1145C223.338 45.1171 221.222 45.3337 219.146 45.7704C219.144 45.7708 219.141 45.7713 219.139 45.7723C218.925 45.8171 218.713 45.8641 218.501 45.9136C211.213 47.62 204.561 51.9195 199.367 57.8087C198.065 59.2784 196.857 60.8507 195.754 62.4974C195.713 62.5577 195.672 62.6183 195.631 62.6795C194.38 64.5653 193.269 66.5609 192.31 68.6353C190.993 71.4789 189.969 74.4534 189.208 77.4881C188.695 79.5611 187.964 81.9769 187.971 84.2235C187.973 85.0362 188.074 85.8262 188.313 86.5706C190.06 91.96 191.382 97.49 192.248 103.083C192.423 104.184 192.576 105.287 192.713 106.393C193.387 111.865 193.679 117.537 196.035 122.524C196.356 123.2 196.713 123.86 197.1 124.499C197.124 124.538 197.15 124.579 197.175 124.619C197.182 124.631 197.191 124.645 197.199 124.658C197.219 124.691 197.24 124.724 197.26 124.757C197.266 124.765 197.271 124.772 197.275 124.78C197.299 124.818 197.325 124.858 197.349 124.897C197.357 124.909 197.364 124.921 197.374 124.933C197.394 124.965 197.415 124.997 197.435 125.029C197.441 125.038 197.446 125.046 197.454 125.055C197.48 125.096 197.506 125.136 197.532 125.176C197.537 125.183 197.541 125.19 197.547 125.198C197.571 125.235 197.595 125.272 197.621 125.309C197.625 125.314 197.627 125.318 197.63 125.323C199.386 127.925 201.694 130.151 204.303 131.946L204.158 131.823C202.608 130.45 201.208 128.88 200.144 127.098C198.986 125.162 198.395 123.057 198.056 120.837C197.217 115.31 197.868 109.667 198.96 104.224C199.998 99.0452 201.532 93.9877 202.685 88.8373C203.827 83.7488 204.658 78.3008 203.295 73.1708L203.302 72.9774C203.298 72.7808 203.445 72.5859 203.635 72.5859C203.693 72.5859 203.754 72.6042 203.819 72.6464C204.531 73.1256 205.214 73.642 205.881 74.1824C208.621 76.404 211.034 79.0288 213.995 80.9759C216.926 82.8997 220.201 84.2261 223.494 85.389C229.212 87.4054 235.128 89.0186 240.432 92.0375C243.028 93.5167 245.434 95.33 247.487 97.5026C249.642 99.7795 251.402 102.431 252.873 105.189C254.922 109.03 256.385 113.152 257.349 117.39C257.447 117.048 257.546 116.709 257.637 116.366C258.862 111.66 259.316 106.803 259.722 101.957C259.74 101.67 259.77 101.389 259.79 101.103C260.097 97.3423 260.408 93.5814 260.724 89.8223C260.765 89.2964 260.826 88.7668 260.893 88.2295C261.033 86.9709 261.193 85.6917 261.191 84.4478C261.191 84.3649 261.191 84.2819 261.189 84.1995C261.157 82.9329 260.601 81.6269 260.367 80.3774C259.188 74.2332 257.205 68.1814 254.146 62.7176C252.036 58.9526 249.388 55.4453 246.076 52.6458C245.947 52.5367 245.817 52.4292 245.687 52.3223C239.941 47.6114 232.749 45.1344 225.579 45.1145C225.549 45.1145 225.521 45.1145 225.491 45.1145Z" fill="#ECC1A3"/>
<path fill-rule="evenodd" clip-rule="evenodd" d="M216.007 115.528H237.787C237.787 115.528 235.429 123.06 227.714 123.06C217.201 123.06 216.007 115.528 216.007 115.528Z" fill="#FFFFFE"/>
<path fill-rule="evenodd" clip-rule="evenodd" d="M212.976 102.726C212.929 102.111 212.779 101.459 212.449 100.929C212.053 100.289 211.339 99.9766 210.605 100.174C209.937 100.351 209.489 100.904 209.258 101.53C208.86 102.602 209.191 103.86 209.941 104.693C210.424 105.227 211.19 105.556 211.858 105.131L211.89 105.105C212.211 104.968 212.483 104.722 212.665 104.389C212.94 103.886 213.017 103.293 212.976 102.726Z" fill="#201923"/>
<path fill-rule="evenodd" clip-rule="evenodd" d="M244.55 102.726C244.506 102.111 244.353 101.459 244.026 100.929C243.63 100.289 242.916 99.9766 242.181 100.174C241.512 100.351 241.064 100.904 240.833 101.53C240.437 102.602 240.766 103.86 241.517 104.693C241.999 105.227 242.765 105.556 243.435 105.131L243.464 105.105C243.786 104.968 244.058 104.722 244.242 104.389C244.517 103.886 244.593 103.293 244.55 102.726Z" fill="#201923"/>
<path fill-rule="evenodd" clip-rule="evenodd" d="M225.698 99.3364C225.506 101.577 225.397 103.817 225.369 106.066C225.596 105.839 225.821 105.613 226.048 105.387C224.184 105.159 220.917 106.241 221.782 108.822C222.769 111.768 225.642 111.893 228.292 111.313C229.146 111.126 228.785 109.816 227.931 110.003C226.514 110.313 225.053 110.614 223.755 109.594C223.784 108.722 223.814 107.849 223.842 106.977C224.567 106.655 225.302 106.577 226.048 106.745C226.419 106.79 226.723 106.402 226.726 106.066C226.754 103.817 226.864 101.577 227.057 99.3364C227.132 98.4635 225.774 98.4708 225.698 99.3364Z" fill="#B98A6A"/>
<path fill-rule="evenodd" clip-rule="evenodd" d="M266.042 109.817C264.817 109.952 263.629 110.26 262.502 110.74C262.931 109.347 263.558 108.022 264.456 106.83C264.707 106.498 264.508 105.977 264.183 105.782C263.794 105.549 263.385 105.729 263.136 106.056C260.932 108.977 260.248 112.712 260.157 116.293C260.131 117.277 261.663 117.277 261.687 116.293C261.719 115.082 261.823 113.864 262.039 112.672C262.656 112.318 263.223 112.059 263.868 111.842C264.227 111.72 264.592 111.618 264.964 111.534C265.364 111.444 265.737 111.382 266.042 111.348C266.437 111.304 266.827 111.028 266.807 110.582C266.79 110.206 266.468 109.769 266.042 109.817Z" fill="#B98A6A"/>
<path fill-rule="evenodd" clip-rule="evenodd" d="M186.217 109.817C187.443 109.952 188.631 110.26 189.756 110.74C189.329 109.347 188.702 108.022 187.802 106.83C187.551 106.498 187.75 105.977 188.075 105.782C188.466 105.549 188.877 105.729 189.124 106.056C191.326 108.977 192.012 112.712 192.101 116.293C192.127 117.277 190.597 117.277 190.573 116.293C190.541 115.082 190.437 113.864 190.219 112.672C189.602 112.318 189.035 112.059 188.39 111.842C188.031 111.72 187.666 111.618 187.296 111.534C186.896 111.444 186.521 111.382 186.217 111.348C185.821 111.304 185.433 111.028 185.451 110.582C185.47 110.206 185.792 109.769 186.217 109.817Z" fill="#B98A6A"/>
<path fill-rule="evenodd" clip-rule="evenodd" d="M265.353 86.8896C265.379 88.2095 265.209 88.5779 265.062 89.9202C264.996 90.4556 265.393 93.8846 265.353 94.409C265.036 98.1699 262.044 97.061 261.739 100.822C261.719 101.108 259.738 101.67 259.72 101.956C259.316 106.802 258.862 111.66 257.637 116.366C257.362 117.422 257.046 118.473 256.677 119.508C256.56 114.742 255.984 110.011 254.539 105.435C252.525 99.0257 248.811 93.3626 243.325 89.4136C237.748 85.4032 231.2 83.1272 224.742 80.9899C218.058 78.7702 211.18 76.5971 205.296 72.6106C204.21 71.8762 203.157 71.0803 202.158 70.2187C199.587 68.0282 197.351 65.453 195.754 62.4979C196.857 60.8502 196.948 56.934 198.25 55.4644C203.443 49.5771 211.427 46.3834 218.713 44.679C228.193 42.4644 240.285 44.6932 247.98 51.2084C251.29 54.0107 256.244 58.6955 258.357 62.4612C261.414 67.9259 264.116 71.5342 265.295 77.6779C265.529 78.9264 265.323 85.6233 265.353 86.8896Z" fill="#50382B"/>
<path fill-rule="evenodd" clip-rule="evenodd" d="M199.938 85.7493C198.8 91.0926 197.881 96.4862 197.301 101.92C196.494 109.416 196.325 117.003 197.1 124.499C196.713 123.86 196.356 123.201 196.035 122.524C193.679 117.537 193.387 111.865 192.713 106.394C192.576 105.288 192.423 104.185 192.248 103.083C191.382 97.4895 187.343 96.6493 185.598 91.2607C184.691 88.4597 187.523 78.9252 188.222 76.103C188.983 73.0673 189.995 69.8509 191.311 67.0081C192.301 64.8654 193.742 62.0676 195.044 60.1293C196.144 58.4817 198.065 59.2785 199.367 57.8085C201.009 61.6455 201.954 65.7638 202.147 69.9377C202.153 70.0289 202.158 70.1254 202.158 70.2187C202.346 75.5094 201.03 80.6122 199.938 85.7493Z" fill="#50382B"/>
<path fill-rule="evenodd" clip-rule="evenodd" d="M140.142 99.1177C143.02 97.6367 144.127 94.0714 144.201 91.0495C144.281 87.7729 143.195 84.4832 141.195 81.8895C140.345 80.7933 139.189 79.6794 137.889 78.9658C138.179 77.5951 138.196 76.1834 137.987 74.8004C136.979 68.1171 130.611 63.8176 124.072 64.0934C120.28 64.2539 116.686 65.8878 113.833 68.3486C113.194 68.8985 112.483 69.5994 111.832 70.3872C111.347 69.2089 110.662 68.1026 109.828 67.1322C107.554 64.4903 104.187 62.7933 100.755 62.3082C96.8181 61.7523 92.8322 62.7385 89.3126 64.5012C85.8085 66.2534 82.5099 68.8147 80.063 71.8903C79.4171 72.7002 78.8276 73.5541 78.319 74.4521C77.2462 72.6278 75.5919 71.1042 73.7142 70.2376C69.5514 68.314 64.4041 68.8528 60.8532 71.807C59.4179 73.0024 58.2314 74.7387 58.0472 76.6214C57.2579 77.2027 56.5806 77.9402 56.0573 78.7734C53.2011 78.5532 50.2992 80.4926 49.9776 83.5522C49.7303 85.917 51.0694 88.0927 53.015 89.107C51.9771 91.7398 52.2339 94.8136 53.4911 97.3329C53.6705 97.6933 53.8816 98.0386 54.1118 98.3661C52.1724 100.454 51.0443 103.234 50.9307 106.078C50.8124 109.029 51.8654 111.956 53.9623 114.052C55.3594 115.447 57.1949 116.472 59.1453 116.853C59.1547 118.171 59.4289 119.489 60.004 120.736C61.1163 123.154 63.3142 125.145 65.9138 125.811C68.0139 126.348 70.2889 126.005 72.1874 124.974C72.7814 126.025 73.5531 126.978 74.4828 127.746C76.7828 129.644 79.814 130.372 82.749 129.986C86.4151 129.502 89.67 127.185 91.6552 124.07C92.813 125.527 94.395 126.646 96.1265 127.314C99.6732 128.678 103.423 127.659 105.997 125.234C106.866 126.756 108.027 128.113 109.482 129.025C111.891 130.531 114.818 130.211 116.891 128.283C117.63 127.596 118.197 126.756 118.615 125.833C120.923 128.08 124.156 129.378 127.409 128.981C132.671 128.338 137.267 123.777 137.209 118.345C137.207 118.122 137.188 117.9 137.171 117.679L137.396 117.661C140.068 117.311 141.756 114.967 142.433 112.523C143.662 108.088 142.302 103.063 139.515 99.384C139.729 99.3065 139.94 99.2219 140.142 99.1177Z" fill="#50382B"/>
<path fill-rule="evenodd" clip-rule="evenodd" d="M184.362 255.044C182.02 244.641 180.503 234.079 179.132 223.51C178.236 216.589 177.645 209.572 176.659 202.641C175.739 196.168 173.65 189.927 169.02 185.142C161.345 177.209 150.407 173.287 140.441 169.133C135.152 166.925 129.89 164.552 124.994 161.56C120.572 158.856 119.324 152.348 118.377 147.593C116.107 136.191 115.418 124.538 114.734 112.927C109.171 113.524 103.665 113.546 98.0752 113.798V113.687C97.4654 113.713 96.8371 113.741 96.202 113.771C95.5641 113.741 94.9352 113.713 94.3273 113.687V113.798C88.7376 113.546 83.2312 113.524 77.6683 112.927C76.986 124.538 76.2974 136.191 74.0274 147.593C73.0788 152.348 71.8311 158.856 67.4084 161.56C62.5118 164.552 57.2501 166.925 51.9626 169.133C41.9963 173.287 31.0577 177.209 23.3819 185.142C18.7529 189.927 16.6642 196.168 15.7442 202.641C14.7579 209.572 14.1672 216.589 13.2707 223.51C11.8998 234.079 10.384 244.641 8.04292 255.044C5.91141 264.508 3.28988 273.871 0 283H192.405C189.113 273.871 186.491 264.508 184.362 255.044Z" fill="#F3C8AC"/>
<path fill-rule="evenodd" clip-rule="evenodd" d="M184.362 255.044C182.02 244.641 180.503 234.079 179.132 223.51C178.236 216.589 177.645 209.572 176.659 202.641C175.739 196.168 173.65 189.927 169.02 185.142C161.345 177.209 150.407 173.287 140.441 169.133C135.152 166.925 129.89 164.552 124.994 161.56C121.074 159.163 119.65 153.778 118.716 149.276C116.544 150.916 114.246 152.394 111.859 153.638C109.395 154.921 106.562 155.686 103.835 156.147C101.053 156.619 98.2188 156.746 95.4052 156.562C89.9412 156.197 84.6931 154.648 79.7653 152.303C77.6745 151.308 75.6516 150.135 73.7942 148.755C72.8595 153.356 71.4813 159.07 67.4084 161.56C62.5118 164.552 57.2501 166.925 51.9626 169.133C41.9963 173.287 31.0577 177.209 23.3819 185.142C18.7529 189.927 16.6642 196.168 15.7442 202.641C14.7579 209.572 14.1672 216.589 13.2707 223.51C11.8998 234.079 10.384 244.641 8.04292 255.044C5.91141 264.508 3.28988 273.871 0 283H192.405C189.113 273.871 186.491 264.508 184.362 255.044Z" fill="#45C3C1"/>
<path fill-rule="evenodd" clip-rule="evenodd" d="M76.5574 129.061C76.5343 129.324 76.5107 129.589 76.4863 129.852C76.4873 129.853 76.4873 129.853 76.4882 129.854C76.5122 129.59 76.5358 129.325 76.5592 129.062C76.5588 129.061 76.5579 129.061 76.5574 129.061Z" fill="#F4CBD5"/>
<path fill-rule="evenodd" clip-rule="evenodd" d="M76.7457 126.837C76.6858 127.579 76.6228 128.32 76.5571 129.061C76.5577 129.061 76.5586 129.061 76.559 129.062C76.6246 128.321 76.6873 127.579 76.7476 126.837C76.747 126.837 76.7461 126.837 76.7461 126.837" fill="#6B252B"/>
<path fill-rule="evenodd" clip-rule="evenodd" d="M115.848 129.077C115.848 129.077 115.847 129.078 115.846 129.078C116.362 134.891 117.063 140.68 118.147 146.412C118.149 146.412 118.152 146.414 118.153 146.415C117.067 140.682 116.364 134.891 115.848 129.077Z" fill="#F4CBD5"/>
<path fill-rule="evenodd" clip-rule="evenodd" d="M115.746 127.915H115.745C115.778 128.303 115.811 128.69 115.846 129.078C115.846 129.078 115.847 129.078 115.847 129.078C115.813 128.69 115.779 128.302 115.746 127.915Z" fill="#6B252B"/>
<path fill-rule="evenodd" clip-rule="evenodd" d="M76.7479 126.837C76.6876 127.579 76.625 128.321 76.5593 129.062C76.5359 129.325 76.5123 129.59 76.4883 129.854C76.6482 130.012 76.8098 130.169 76.9779 130.32C80.241 133.264 84.4205 135.034 88.55 136.386C93.0305 137.854 97.6453 138.854 102.219 139.981C106.676 141.078 111.146 142.276 115.185 144.517C116.21 145.086 117.2 145.72 118.147 146.412C117.062 140.68 116.362 134.891 115.846 129.078C115.812 128.69 115.778 128.303 115.745 127.915C110.086 129.572 104.119 130.024 98.1974 130.024C97.6829 130.024 97.1696 130.021 96.6558 130.014C90.5239 129.94 84.3212 129.449 78.5127 127.487C77.9198 127.287 77.3309 127.071 76.7479 126.837Z" fill="#ECC1A3"/>
<path fill-rule="evenodd" clip-rule="evenodd" d="M66.6333 100.356C65.0455 96.2709 63.4572 92.1856 61.8694 88.1019C61.0784 84.7666 57.8599 82.6239 54.4804 83.188C51.1924 83.7379 49.2608 86.7313 48.651 89.7969C47.4854 95.6613 49.938 103.192 56.5507 104.325C60.0859 104.931 63.6798 103.723 66.3592 101.394C66.6193 101.171 66.761 100.684 66.6333 100.356Z" fill="#F3C8AC"/>
<path fill-rule="evenodd" clip-rule="evenodd" d="M127.784 100.356C129.372 96.2709 130.961 92.1856 132.549 88.1019C133.339 84.7666 136.558 82.6239 139.936 83.188C143.225 83.7379 145.157 86.7313 145.769 89.7969C146.935 95.6613 144.48 103.192 137.867 104.325C134.332 104.931 130.739 103.723 128.06 101.394C127.798 101.171 127.657 100.684 127.784 100.356Z" fill="#F3C8AC"/>
<path fill-rule="evenodd" clip-rule="evenodd" d="M137.61 97.6114C137.547 103.592 136.718 109.612 133.779 114.761C130.292 120.862 124.113 125.105 117.461 127.372C110.813 129.641 103.68 130.101 96.6555 130.014C90.5235 129.94 84.3209 129.449 78.5123 127.487C72.7021 125.527 67.2681 121.972 63.9752 116.799C57.3993 106.469 59.1085 92.5164 57.7839 80.8926C57.2937 76.6121 56.5752 72.3537 55.4345 68.1991C54.3224 64.1546 55.0817 60.7896 56.0742 56.78C56.9123 53.4317 58.0402 50.1629 59.4899 47.0292C65.2182 34.6334 75.9412 24.9159 88.321 22.0231C98.7557 19.5795 110.203 22.2594 118.673 29.4311C122.312 32.5144 125.233 36.3726 127.554 40.5132C131.579 47.7083 134.174 55.8803 135.384 64.1546C136.06 68.7865 135.587 73.2325 136.169 77.8138C136.849 83.1927 137.39 88.5965 137.564 94.0195C137.604 95.209 137.621 96.4095 137.61 97.6114Z" fill="#F3C8AC"/>
<path fill-rule="evenodd" clip-rule="evenodd" d="M95.9901 21.1405C93.4705 21.1424 90.9553 21.4209 88.4932 21.9837C90.9544 21.4209 93.4708 21.1427 95.9901 21.1405Z" fill="#F4CBD5"/>
<path fill-rule="evenodd" clip-rule="evenodd" d="M57.7842 80.8926C57.8294 81.3103 57.872 81.7324 57.9132 82.1545L57.9155 82.1555C57.8751 81.7318 57.8316 81.3103 57.7842 80.8926Z" fill="#6B252B"/>
<path fill-rule="evenodd" clip-rule="evenodd" d="M96.0206 21.1405C96.0111 21.1405 96.0003 21.1405 95.9903 21.1405C93.4711 21.1427 90.9546 21.4209 88.4934 21.9837C88.4357 21.9967 88.3788 22.0099 88.3212 22.0231C75.9414 24.9159 65.2184 34.6334 59.4902 47.0292C58.0404 50.1629 56.9125 53.4317 56.0744 56.78C55.4311 59.3798 54.8848 61.7088 54.8848 64.1278C54.8838 65.4394 55.0438 66.777 55.4347 68.1991C56.5754 72.3537 57.2939 76.6121 57.7841 80.8926C57.8315 81.3102 57.8751 81.7318 57.9154 82.1555C60.0183 82.8857 62.3426 83.158 64.5363 83.1611C64.5435 83.1611 64.5502 83.1611 64.5575 83.1611C67.6887 83.1611 70.8177 82.4567 73.5906 80.9854C76.1333 79.6355 78.8873 77.7163 79.9179 74.9042C79.9785 74.7374 80.1494 74.6133 80.3188 74.6133C80.4084 74.6133 80.4977 74.6481 80.5702 74.7307C81.4336 75.7155 82.8306 76.0715 84.0706 76.2904C85.0772 76.4674 86.1201 76.5689 87.1624 76.5689C88.5776 76.5689 89.9928 76.3822 91.3165 75.9437C93.8701 75.1011 96.3658 73.4168 97.4892 70.8995C97.549 70.7658 97.6736 70.7074 97.8023 70.7074C97.9446 70.7074 98.0922 70.7786 98.1648 70.8995C99.3103 72.7881 101.642 73.7177 103.665 74.3115C105.959 74.986 108.426 75.4033 110.872 75.4033C112.706 75.4033 114.528 75.1692 116.258 74.6332C120.991 73.1664 125.232 69.6202 126.287 64.6148C126.322 64.4499 126.504 64.3253 126.677 64.3253C126.742 64.3253 126.806 64.3431 126.861 64.3829C128.898 65.8827 130.409 67.906 131.414 70.2203C132.515 72.7632 133.052 75.5361 133.569 78.2456C134.617 83.7456 135.223 89.3262 136.514 94.7786C136.844 96.1743 137.225 97.5534 137.58 98.9383C137.595 98.497 137.605 98.054 137.61 97.6114C137.612 97.3862 137.614 97.1606 137.614 96.9354C137.614 95.9597 137.596 94.9858 137.565 94.0195C137.45 90.4801 137.18 86.9492 136.818 83.428C136.625 81.5539 136.405 79.6825 136.169 77.8138C135.814 75.0165 135.852 72.2698 135.781 69.5001C135.736 67.7338 135.647 65.9584 135.384 64.1546C134.174 55.8803 131.579 47.7083 127.554 40.5132C125.233 36.3726 122.312 32.5144 118.673 29.4311C118.56 29.3355 118.447 29.2413 118.333 29.1475C112.019 23.9383 104.108 21.1844 96.2108 21.1405C96.1474 21.1405 96.084 21.1405 96.0206 21.1405Z" fill="#ECC1A3"/>
<path fill-rule="evenodd" clip-rule="evenodd" d="M85.5742 98.6487H109.549C109.549 98.6487 106.953 106.941 98.4615 106.941C86.8869 106.941 85.5742 98.6487 85.5742 98.6487Z" fill="#FFFFFE"/>
<path fill-rule="evenodd" clip-rule="evenodd" d="M79.3365 84.5597C79.2867 83.8807 79.1201 83.1644 78.7585 82.5791C78.3236 81.8769 77.5373 81.5331 76.7282 81.7479C75.9933 81.9448 75.4986 82.5524 75.245 83.2423C74.8092 84.4211 75.1717 85.8073 75.997 86.722C76.5288 87.3123 77.3724 87.6736 78.1071 87.2067L78.1415 87.1767C78.4949 87.0263 78.7948 86.7546 78.9958 86.3877C79.2995 85.8369 79.3837 85.1826 79.3365 84.5597Z" fill="black"/>
<path fill-rule="evenodd" clip-rule="evenodd" d="M120.178 84.5597C120.127 83.8807 119.959 83.1644 119.598 82.5791C119.163 81.8769 118.376 81.5331 117.567 81.7479C116.833 81.9448 116.338 82.5524 116.083 83.2423C115.648 84.4211 116.011 85.8073 116.836 86.722C117.369 87.3123 118.212 87.6736 118.947 87.2067L118.981 87.1767C119.334 87.0263 119.634 86.7546 119.836 86.3877C120.14 85.8369 120.223 85.1826 120.178 84.5597Z" fill="black"/>
<path fill-rule="evenodd" clip-rule="evenodd" d="M97.7635 80.8283C97.5523 83.2944 97.4314 85.7597 97.4011 88.235C97.6503 87.9858 97.8993 87.7367 98.1485 87.4877C96.096 87.2347 92.5023 88.4279 93.4522 91.2679C94.5374 94.5124 97.702 94.6487 100.618 94.0099C101.559 93.8039 101.16 92.3629 100.22 92.5685C98.6632 92.9096 97.0513 93.2412 95.6229 92.1178C95.6551 91.1578 95.6878 90.1983 95.7198 89.2389C96.5181 88.8824 97.3276 88.7967 98.1485 88.9824C98.557 89.0328 98.8914 88.6042 98.896 88.235C98.9264 85.7597 99.0472 83.2944 99.2583 80.8283C99.3409 79.8674 97.845 79.8756 97.7635 80.8283Z" fill="#B98A6A"/>
<path fill-rule="evenodd" clip-rule="evenodd" d="M142.981 92.3637C141.632 92.5123 140.324 92.8515 139.086 93.3793C139.557 91.8468 140.247 90.3877 141.237 89.0753C141.514 88.7097 141.294 88.1366 140.935 87.9227C140.506 87.6663 140.055 87.8634 139.782 88.2255C137.357 91.4395 136.603 95.5493 136.503 99.4906C136.475 100.576 138.161 100.575 138.188 99.4906C138.222 98.1591 138.336 96.819 138.575 95.5076C139.255 95.1162 139.879 94.8303 140.589 94.5925C140.985 94.4593 141.387 94.3461 141.794 94.254C142.234 94.1531 142.647 94.0846 142.981 94.0493C143.417 93.9995 143.845 93.6963 143.824 93.2058C143.805 92.7909 143.45 92.3107 142.981 92.3637Z" fill="#B98A6A"/>
<path fill-rule="evenodd" clip-rule="evenodd" d="M51.7644 92.3637C53.1125 92.5123 54.4216 92.8515 55.6594 93.3793C55.1891 91.8468 54.4979 90.3877 53.5076 89.0753C53.232 88.7097 53.4522 88.1366 53.8102 87.9227C54.2388 87.6663 54.69 87.8634 54.9626 88.2255C57.3891 91.4395 58.1428 95.5493 58.2415 99.4906C58.2696 100.576 56.5844 100.575 56.5572 99.4906C56.5238 98.1591 56.4087 96.819 56.1704 95.5076C55.49 95.1162 54.8657 94.8303 54.1572 94.5925C53.7613 94.4593 53.359 94.3461 52.9522 94.254C52.5111 94.1531 52.0978 94.0846 51.7644 94.0493C51.3278 93.9995 50.9001 93.6963 50.9227 93.2058C50.9408 92.7909 51.295 92.3107 51.7644 92.3637Z" fill="#B98A6A"/>
<path fill-rule="evenodd" clip-rule="evenodd" d="M145.752 65.9294C147.762 62.7775 148.772 58.829 147.842 55.1428C147.003 51.8282 144.653 48.8781 141.422 47.6522C141.026 47.5018 140.619 47.3868 140.208 47.303C141.201 44.1916 141.401 40.765 140.991 37.5568C140.508 33.7747 138.966 30.0835 135.902 27.6807C132.748 25.2077 128.853 24.8925 125.165 26.3352C124.357 26.6525 123.57 27.027 122.799 27.4333L122.837 27.326C124.292 23.0232 125.221 18.2268 123.921 13.7654C122.833 10.0277 120.226 6.69172 116.443 5.45823C112.298 4.10646 107.57 5.35985 103.85 7.36528C102.298 8.20249 100.836 9.36811 99.7058 10.7548C99.6189 10.5533 99.531 10.3507 99.443 10.1492C97.9925 6.82952 95.8707 3.56587 92.7448 1.60841C89.2241 -0.598598 85.0491 -0.373396 81.3651 1.30864C77.6585 3.00202 74.1875 6.00143 72.1998 9.58197C71.4821 10.8744 70.9902 12.2584 70.7511 13.6709C67.9696 12.6394 64.9063 12.4609 62.0251 13.2962C58.4872 14.3212 55.4112 16.6938 53.3752 19.7445C51.2143 22.9834 50.4616 26.9165 51.007 30.7468L51.0323 30.904C47.4906 30.0106 43.6555 30.132 40.2633 31.2409C33.2125 33.5458 28.4677 40.0692 27.2465 47.2409C25.9717 54.7248 28.4478 62.9546 34.4494 67.8357C36.3557 69.3859 38.6334 70.59 41.0371 71.1368C42.907 75.4273 46.7477 78.9781 50.9733 80.7501C58.8169 84.0404 68.0548 81.6046 74.7266 76.8109C76.2199 75.7395 77.6342 74.5213 78.9052 73.1746C82.544 74.692 86.7289 74.7387 90.4489 73.4589C93.8937 72.2739 96.8691 70.0288 99.2139 67.2685C99.3969 67.4647 99.5836 67.654 99.7755 67.8357C102.598 70.4969 106.342 71.6818 110.182 71.1459C114.372 70.5607 118.041 68.1647 121.297 65.5988C122.163 64.917 123.01 64.2085 123.845 63.4892C124.489 62.9365 125.394 61.8909 126.346 62.1177C127.25 62.3334 128.098 63.3432 128.74 63.9725C129.412 64.6325 130.047 65.3332 130.64 66.0663C133.052 69.0518 134.725 72.6336 135.583 76.3683C136.41 79.9737 136.447 83.7438 135.62 87.3524C135.379 88.4089 137.002 88.8593 137.244 87.8C137.372 87.2432 137.473 86.6829 137.564 86.1202C137.832 86.2245 138.126 86.2807 138.437 86.2679C139.467 86.2294 140.214 85.4965 140.778 84.7024C142.135 82.7857 143.135 80.5346 143.866 78.3103C144.802 75.4519 145.516 71.1784 143.296 68.8935C144.279 67.9925 145.121 66.9161 145.752 65.9294Z" fill="#50382B"/>
</svg>
