<svg width="39" height="46" viewBox="0 0 39 46" fill="none" xmlns="http://www.w3.org/2000/svg">
<path fill-rule="evenodd" clip-rule="evenodd" d="M24.2374 0.000303328C24.1398 0.00175148 24.0422 0.0089411 23.9451 0.0218552C23.2524 0.114094 22.5884 0.497768 22.1421 1.18644C21.6547 1.93454 21.6005 2.90883 21.9796 3.67491C22.3148 4.31652 22.782 4.71549 23.4761 5.02669C22.8889 4.47798 22.5444 4.19021 22.2504 3.59238C21.9698 2.99635 21.9685 2.35634 22.1856 1.80149C22.4153 1.21431 22.8896 0.722504 23.5362 0.479402C24.0597 0.287855 24.7595 0.306766 25.2889 0.56411C25.7222 0.779612 26.0229 1.07882 26.2455 1.52764C26.5211 2.09978 26.4401 2.73102 26.2035 3.32306C26.0049 3.67617 25.7041 3.95143 25.4093 4.05318C25.2529 4.10104 25.1746 4.09504 24.976 3.99329C24.6451 3.81972 24.3382 3.83177 24.1577 4.01725C23.881 4.28657 24.0013 4.85513 24.3623 5.00473C24.5187 5.06457 24.6029 5.05857 24.9519 4.9509C25.4393 4.80121 25.8544 4.508 26.2455 4.01725C26.7579 3.37662 26.9832 2.35946 26.6127 1.5156C26.1292 0.501959 25.1812 -0.0143485 24.2374 0.000303328ZM13.4755 1.02338C12.6204 1.0174 11.751 1.04289 11.3117 1.10277C8.83275 1.44985 6.51028 2.42527 4.41041 3.99927C3.44171 4.72342 1.88929 6.28551 1.31769 7.09942C1.20937 7.25502 1.29963 7.19512 1.68469 6.85996C3.59807 5.17829 7.0578 3.50854 10.1685 2.76642C11.7329 2.38941 13.568 2.20992 15.0422 2.27574C15.8845 2.3176 17.2504 2.49117 17.8942 2.64077C18.0928 2.68868 18.2792 2.73054 18.3033 2.73054C18.3514 2.73054 18.7125 2.11416 18.7125 2.03037C18.7125 1.90472 16.6908 1.33018 15.5536 1.13265C15.1715 1.06684 14.3307 1.02938 13.4755 1.02338ZM15.1745 3.59831L15.3912 3.77193C15.8003 4.09511 16.426 4.7893 16.769 5.30401C16.9615 5.58525 17.3647 6.30347 17.6776 6.90796C17.9845 7.50638 18.2491 7.99712 18.2612 7.99712C18.3334 7.99712 18.201 7.07547 18.0807 6.68048C17.8821 6.07601 17.2322 4.7893 16.8231 4.1968L16.4922 3.71803L15.8304 3.65821L15.1745 3.59831ZM14.0914 3.71803L13.4056 3.75989C10.3791 3.93944 6.38389 5.32198 3.61608 7.14735C2.28039 8.02707 1.05293 9.0923 0.421193 9.9122L0.210562 10.1815L0.421193 10.0139C1.5102 9.14613 2.20819 8.70929 3.33338 8.17069C4.51266 7.61413 5.93258 7.17721 6.96145 7.06349L7.34054 7.02156L6.81102 6.68641C6.52225 6.50093 6.22142 6.3034 6.13718 6.23758L5.98678 6.12991L6.19734 6.16577C6.31169 6.18973 6.84114 6.2316 7.37065 6.26154C8.20701 6.3094 8.87484 6.40516 9.27796 6.53681C9.38025 6.56674 9.38628 6.55476 9.33215 6.45302C9.25393 6.3034 8.67029 5.77672 8.21304 5.43558C7.80388 5.13038 7.71965 5.13643 9.05535 5.41768C10.1324 5.64516 10.8063 5.84859 11.5765 6.17177C11.7148 6.2316 11.0771 5.37582 10.5897 4.85513C10.4092 4.6576 10.3009 4.52596 10.349 4.56184C10.3971 4.59777 10.7642 4.74139 11.1613 4.88506C12.1481 5.23812 13.3334 5.80673 14.0374 6.27951C14.3563 6.48902 14.621 6.64455 14.621 6.62059C14.621 6.47097 12.6955 4.28657 12.4067 4.10702C12.1119 3.92148 12.7016 4.16092 13.5079 4.55591C14.5728 5.07654 15.1986 5.53142 16.2095 6.50093L16.9315 7.18914L16.7028 6.77027C16.3478 6.11793 15.8725 5.52542 14.9459 4.58579L14.0914 3.71803ZM18.7027 4.40201C18.6466 4.39884 18.7066 4.59497 18.8388 5.12445C19.0855 6.13582 19.1457 6.69845 19.1216 7.80566L19.1036 8.87679L19.26 8.45194C19.4706 7.87142 19.8616 7.11133 20.2587 6.51284C20.6137 5.96825 20.6198 5.90243 20.343 5.63909L20.1685 5.47158L20.0302 5.72888C19.958 5.87248 19.8497 6.12984 19.7895 6.29142C19.6812 6.59071 19.6812 6.59071 19.6752 6.38121C19.6691 6.11793 19.4766 5.18429 19.3984 5.05864C19.3683 5.0048 19.1877 4.81918 18.9952 4.64569C18.8338 4.49981 18.7411 4.40424 18.7027 4.40201ZM21.029 6.80015C20.9748 6.80015 20.3249 7.78763 20.1384 8.15265C19.9459 8.54171 19.7353 9.12225 19.6451 9.51722C19.609 9.67282 19.621 9.68479 19.7053 9.61298C19.8617 9.48129 20.4453 8.57759 20.6078 8.20656C20.7522 7.8834 21.0771 6.80015 21.029 6.80015ZM11.5427 7.72022C10.1109 7.73657 8.52396 8.01237 6.78093 8.54764C4.80143 9.15211 3.03851 10.0977 1.37784 11.4443C0.896512 11.8333 0 12.7549 0 12.8566C0 12.8925 0.090251 12.8448 0.198572 12.749C1.23948 11.7855 1.99756 11.181 2.76775 10.6843C6.1131 8.52375 10.4754 7.5782 14.1638 8.20656C14.6572 8.29034 15.0662 8.35018 15.0783 8.3382C15.0903 8.32623 14.8797 8.24244 14.6029 8.15265C13.6763 7.85157 12.6564 7.70744 11.5427 7.72022ZM21.394 8.11232C21.2818 8.11466 20.4897 9.46384 20.3611 9.90627C20.325 10.0499 20.331 10.0439 20.6137 9.84637C21.0891 9.50524 21.1492 9.37959 21.4019 8.17662C21.4112 8.13216 21.4078 8.11207 21.394 8.11232ZM29.8869 8.24903C29.6525 8.23923 28.5512 8.48336 27.9364 8.68533C26.4442 9.18207 25.0241 10.1755 24.5909 11.0253C24.278 11.6418 24.23 12.5155 24.4767 13.0062C24.6632 13.3593 24.8918 13.6107 25.331 13.9339C25.5476 14.0895 25.7281 14.2212 25.7341 14.2212C25.7461 14.2212 25.6259 14.0537 25.4755 13.8502C25.1144 13.3654 24.9701 13.0302 24.928 12.5694C24.8858 12.0907 25.0362 11.4204 25.2828 10.9895C25.6799 10.2952 26.5705 9.58303 27.7678 9.01449C28.3695 8.72726 29.6029 8.30232 29.8556 8.29035C29.9339 8.29035 29.964 8.27246 29.922 8.25448C29.9144 8.25148 29.9025 8.24963 29.8869 8.24896V8.24903ZM32.0615 8.44068C30.8072 8.43802 29.5474 8.68274 28.4779 9.16411C27.0098 9.8344 25.7883 11.0373 25.656 11.953L25.6199 12.2163L25.8726 11.8093C26.1674 11.3305 26.7209 10.7201 27.1962 10.3611C27.7197 9.96011 28.6644 9.46331 29.3504 9.22992C30.3492 8.88877 30.8666 8.81098 32.1301 8.81098C33.3635 8.80498 33.9051 8.88884 35.319 9.27783C35.7282 9.39757 36.0772 9.47529 36.0893 9.46338C36.1314 9.42145 35.4274 9.0923 34.8858 8.90077C34.0093 8.59442 33.037 8.44276 32.0615 8.44068ZM24.9399 9.49326L24.6993 9.55908C23.4357 9.90023 22.3647 11.3186 22.4549 12.5395C22.497 13.1021 22.6897 13.5031 23.0988 13.8801C23.5019 14.2452 23.881 14.4426 24.8377 14.7658C25.8605 15.1129 26.4863 15.4421 26.9315 15.849C27.4068 16.2918 27.5633 16.5612 27.828 17.3751C28.1349 18.3147 28.3033 18.5721 29.254 19.5057C30.3671 20.595 30.4273 20.7326 30.2408 21.7919C30.0542 22.8092 30.2769 23.1923 31.5284 24.0002C32.0579 24.3414 32.2685 24.6825 32.2986 25.239C32.3107 25.4664 32.2925 25.7358 32.2564 25.8434C32.1962 26.029 32.1962 26.035 32.2865 25.9213C32.6536 25.4665 32.6235 24.8321 32.2264 24.3054C32.1361 24.1917 31.8954 23.9823 31.6908 23.8506C31.1974 23.5215 30.9447 23.282 30.7883 22.9888C30.6739 22.7793 30.662 22.6776 30.68 22.1509C30.7282 20.954 30.7161 20.7266 30.6018 20.5051C30.5416 20.3915 30.1746 19.9725 29.7835 19.5775C29.3985 19.1826 29.0014 18.7516 28.899 18.6199C28.6584 18.3027 28.3876 17.7582 28.2191 17.2435C27.7678 15.855 27.112 15.2445 25.3129 14.5264C23.6222 13.8501 23.177 13.4432 23.1167 12.5096C23.0867 12.0129 23.1951 11.564 23.4839 11.0194C23.6704 10.6723 24.3142 9.96604 24.7293 9.65484L24.9399 9.49326ZM32.191 9.50325C32.026 9.50251 31.8556 9.50531 31.6788 9.51129C30.6559 9.54717 30.1265 9.63694 29.3322 9.90627C27.9604 10.3791 26.9616 11.175 26.4562 12.1864C26.2756 12.5455 26.2637 12.6113 26.2637 13.2038C26.2637 13.898 26.3359 14.1135 26.7209 14.5503C26.8292 14.6701 26.9194 14.7538 26.9315 14.7418C26.9435 14.7298 26.9135 14.5863 26.8653 14.4247C26.8172 14.2631 26.7509 13.9698 26.7209 13.7724C26.5103 12.33 27.7619 10.8399 29.7174 10.2055C31.5104 9.63096 33.6524 9.76858 36.0711 10.6064C36.36 10.7022 35.5476 10.2354 35.1204 10.0499C34.2307 9.67806 33.3456 9.5079 32.191 9.50325ZM21.4501 10.3251L21.3298 10.4927C21.1072 10.8039 20.7282 11.1809 20.3852 11.4503C20.1987 11.5939 20.0542 11.7436 20.0662 11.7855C20.0843 11.8213 20.1445 12.2343 20.2107 12.6951C20.301 13.3474 20.337 14.0297 20.3671 15.8071C20.3851 17.058 20.4152 18.1352 20.4332 18.2011C20.4814 18.3985 20.3551 18.6379 20.1445 18.7696C19.9821 18.8653 19.8556 18.8832 19.26 18.8713C18.4236 18.8593 18.2792 18.9131 17.2323 19.6193C16.7991 19.9066 16.3298 20.158 15.9086 20.3316L15.2528 20.5949L15.6438 20.6667C16.1914 20.7684 16.6908 20.7625 17.0999 20.6488C17.4188 20.559 17.485 20.5112 17.7256 20.1999C18.2371 19.5357 18.7305 19.2424 19.3382 19.2484L19.5849 19.2543L19.3683 19.4459C18.7666 19.9666 18.7726 20.5052 19.4044 22.8332C19.7353 24.0421 19.9158 24.9159 19.9158 25.2869C19.9158 25.4007 19.9279 25.4785 19.9399 25.4665C19.958 25.4485 20.1204 25.0595 20.301 24.5927C20.4815 24.1319 20.8726 23.276 21.1674 22.7015C21.727 21.6123 21.9375 21.0079 22.0036 20.3136C22.0398 19.8768 21.9375 19.2723 21.8112 19.2244C21.6788 19.1765 21.4802 18.8234 21.4802 18.6319C21.4802 18.5421 21.5645 18.2848 21.6667 18.0634C21.8352 17.7043 21.8593 17.5846 21.9014 16.8545C21.9375 16.2441 22.0037 15.8191 22.1662 15.1308C22.4129 14.1194 22.4188 14.2212 22.0338 13.7783C21.5103 13.1858 21.3177 12.3778 21.4019 11.0912L21.4501 10.3251ZM6.75978 10.699C6.22559 10.694 5.6408 10.7538 5.23466 10.8697C4.63295 11.0433 3.43562 11.6238 2.91815 12.0009C2.01561 12.6592 1.10707 13.6886 0.571599 14.6701L0.28884 15.1847L0.330925 15.6755L0.379108 16.1662L0.487292 15.7174C0.625726 15.1369 0.836357 14.6701 1.23345 14.0597C2.38871 12.3061 4.51867 11.0493 6.34775 11.0493C7.6053 11.0493 8.67035 11.4802 9.59088 12.36C10.5115 13.2457 10.9687 14.2451 10.9748 15.4182C10.9808 16.3877 10.6919 17.0101 10.024 17.4888C9.81951 17.6324 9.60292 17.7941 9.53675 17.8419C9.4224 17.9317 9.4404 17.9376 9.75929 17.9137C10.8122 17.8479 11.4681 16.9801 11.5343 15.5678C11.6005 14.2391 11.065 12.9944 9.99996 11.9949C9.33208 11.3725 8.58605 10.9895 7.61735 10.78C7.38262 10.7284 7.08034 10.702 6.75978 10.699ZM32.5337 11.5398C31.4582 11.5438 30.442 11.7835 29.5247 12.2582C28.4297 12.8267 27.822 13.6766 27.7137 14.7897L27.6776 15.1488L27.792 14.8376C28.1891 13.7724 28.7306 13.1918 29.8136 12.6652C30.8966 12.1385 32.0759 11.9411 33.4177 12.0607C34.2601 12.1325 35.2589 12.336 35.8004 12.5395C36.2156 12.6951 36.2215 12.6951 36.2215 12.5155C36.2215 12.336 36.0471 12.2462 35.1325 11.9589C34.2428 11.6761 33.3703 11.5366 32.5337 11.5398ZM33.1295 14.2867C32.8295 14.2889 32.5452 14.3065 32.2925 14.3409C31.5585 14.4367 30.7282 14.706 30.2889 14.9873C29.7895 15.3105 29.2781 15.879 29.1277 16.2859C28.7847 17.1896 29.1096 18.1711 30.0904 19.2125C30.692 19.8528 30.698 19.8408 30.1505 19.0449C29.633 18.2908 29.5188 17.9915 29.5127 17.3931C29.5127 16.7527 29.6512 16.4355 30.1686 15.9268C30.7522 15.3523 31.5164 15.0052 32.5513 14.8496C33.526 14.6999 34.6692 14.7598 35.6259 14.9992C36.2215 15.1488 36.2215 15.1488 36.2215 14.9394C36.2215 14.7777 36.1975 14.7598 35.8185 14.6401C35.0694 14.4112 34.0291 14.2799 33.1295 14.2867ZM33.9991 16.5638C33.6258 16.5676 33.2823 16.6114 33.0386 16.6989C32.2143 16.9982 31.9797 17.6086 32.3768 18.3986C32.7739 19.1885 33.869 19.8708 35.1987 20.152C35.4815 20.2119 35.8546 20.2598 36.029 20.2598L36.3419 20.2657V19.4398L35.9388 19.368C34.8377 19.1826 34.0074 18.6679 33.0267 17.5667L32.6597 17.1537L32.8882 17.058C33.0206 17.0041 33.3515 16.9203 33.6343 16.8664C34.1458 16.7766 34.4045 16.7886 35.8004 16.9442L36.0711 16.9801L35.7884 16.8605C35.3258 16.6622 34.6212 16.5575 33.9991 16.5638ZM31.5585 16.597L31.378 16.7168C31.1133 16.9023 31.011 17.028 30.8304 17.417C30.7041 17.6983 30.68 17.83 30.698 18.1053C30.7582 18.9551 31.402 19.7451 32.6235 20.4633C33.9171 21.2353 34.4044 21.6841 34.6632 22.3604C34.8978 22.9708 34.8738 23.4915 34.597 24.2336C34.3623 24.8561 33.9051 25.4605 32.8822 26.4899C32.3467 27.0344 31.769 27.6509 31.5945 27.8544C30.8665 28.7401 30.5536 29.8293 30.692 31.0202C30.8244 32.2052 31.2637 33.061 32.2084 33.9527L32.6656 34.3837L32.4009 34.6709C32.0639 35.03 31.6307 35.6584 31.4742 36.0235C31.2035 36.6579 31.1794 37.2983 31.4141 37.9745C31.7269 38.8663 31.4081 40.6198 30.6741 42.074C29.9099 43.5882 28.875 44.7672 27.3767 45.8385L27.2263 45.9461L27.3767 45.9043C27.461 45.8863 27.7437 45.7786 28.0145 45.6708C29.597 45.0245 30.7643 43.9233 31.5886 42.2895C32.1 41.2781 32.3587 40.3325 32.4128 39.2254L32.449 38.531L32.2023 38.166C31.8533 37.6453 31.751 37.2862 31.7811 36.7296C31.8052 36.3945 31.8533 36.1911 31.9677 35.9637C32.2445 35.4251 32.9123 34.8684 33.5321 34.665C33.5862 34.647 33.6343 34.5991 33.6343 34.5573C33.6343 34.3837 33.2673 33.7373 32.9725 33.4022C32.0458 32.3369 31.7029 31.535 31.7029 30.4038C31.7029 29.4343 31.9255 28.6743 32.4429 27.8903C32.6174 27.6209 33.1349 27.0284 33.6584 26.4899C34.8136 25.2989 35.1806 24.6944 35.313 23.7728C35.4154 23.0606 35.283 22.5759 34.8136 21.9595C34.4526 21.4867 34.0615 21.1635 32.9063 20.3795C31.8232 19.6493 31.402 19.2483 31.1493 18.7157C30.8304 18.0514 30.9328 17.2674 31.3961 16.7707L31.5585 16.597ZM3.43629 17.1014C3.40049 17.0889 3.1807 17.2697 2.82194 17.6265C2.31651 18.1292 2.00357 18.6559 1.83509 19.3142C1.75688 19.6194 1.73881 19.8887 1.75688 20.6248C1.78693 21.6243 1.90729 22.3365 2.23823 23.3778C2.33451 23.689 2.47294 24.1439 2.54514 24.3832C2.61739 24.6167 2.70163 24.8142 2.72566 24.8142C2.88811 24.8142 3.77859 24.5508 4.23591 24.3653C4.83154 24.1259 5.49942 23.7967 5.6859 23.653C5.79422 23.5693 5.77615 23.5693 5.51139 23.6471C4.71719 23.8805 3.76047 23.5873 3.0806 22.899C2.48492 22.2885 2.22624 21.5225 2.22624 20.3076C2.22624 19.0149 2.46083 18.3087 3.16484 17.4888C3.38069 17.2375 3.4642 17.111 3.43629 17.1014ZM22.9352 18.2958C22.7164 18.2952 22.5212 18.3133 22.4309 18.3447C22.1422 18.4404 21.9375 18.6619 21.9917 18.8234C22.0398 18.985 22.1421 18.9791 22.4188 18.8175C22.8882 18.5422 23.5621 18.6738 24.5187 19.2244C25.2347 19.6374 25.5657 19.7989 25.9327 19.9126C26.1252 19.9724 26.4381 20.0204 26.6848 20.0204L27.106 20.0144L26.6968 19.9366C26.1433 19.8229 25.7582 19.6374 25.1205 19.1586C24.8256 18.9372 24.3803 18.6558 24.1336 18.5421C23.7486 18.3566 23.6042 18.3207 23.159 18.3027C23.0838 18.2982 23.0081 18.296 22.9352 18.2958ZM22.4017 19.3261C22.3463 19.3224 22.3872 19.3859 22.5633 19.6193C22.6956 19.7929 22.846 20.0443 22.8942 20.176C22.9423 20.3077 23.0686 20.6607 23.177 20.954C23.3514 21.4268 23.4057 21.5045 23.5861 21.5943C23.8388 21.72 24.5428 21.732 25.331 21.6242L25.8425 21.5524L25.1505 21.3849C23.9592 21.1036 23.5139 20.8343 23.201 20.2178C22.9664 19.763 22.6595 19.392 22.4549 19.3381C22.4323 19.3314 22.4145 19.3269 22.4017 19.3261ZM10.3033 19.7671C10.2869 19.7701 10.2359 19.8493 10.1504 20.0024C9.86763 20.5171 9.57884 20.8942 9.12152 21.343C8.90493 21.5524 8.72441 21.768 8.72441 21.8099C8.72441 21.8936 8.71847 21.8996 9.25996 21.4627C9.60895 21.1814 10.0121 20.6308 10.1565 20.2478C10.278 19.9209 10.3273 19.7627 10.3033 19.7671ZM17.4369 20.6368L17.0036 20.7744C16.769 20.8523 16.4201 20.948 16.2336 20.9839C16.041 21.0198 15.8845 21.0737 15.8845 21.0976C15.8845 21.1635 16.5223 21.5285 16.799 21.6123C16.9435 21.6602 17.1962 21.6961 17.3586 21.6961C17.6775 21.7021 18.1108 21.6063 18.1108 21.5285C18.1108 21.5046 18.0145 21.3909 17.8942 21.2772C17.7798 21.1695 17.6235 20.978 17.5573 20.8582L17.4369 20.6368ZM32.2925 20.7505L32.1181 21.1216C31.8654 21.6483 31.751 22.2227 31.8293 22.5758C31.9075 22.9289 32.0218 23.1444 32.3588 23.5873C32.6716 24.0002 32.9725 24.5987 32.9725 24.8082V24.9518L33.0988 24.7901C33.3214 24.5089 33.4719 23.9823 33.4719 23.4975C33.4719 22.7494 33.2613 22.1929 32.6295 21.2473L32.2925 20.7505ZM23.2251 21.5405L23.1048 21.738C23.0326 21.8457 22.8882 22.0133 22.7738 22.1151C22.5753 22.2826 22.5693 22.3005 22.6776 22.3604C22.7438 22.3903 22.9002 22.4442 23.0265 22.4801C23.4116 22.5758 23.875 22.4981 24.3563 22.2647C24.6031 22.145 24.7895 22.0373 24.7775 22.0253C24.7595 22.0133 24.5368 21.9654 24.2721 21.9115C24.0134 21.8637 23.6704 21.7559 23.5079 21.6781L23.2251 21.5405ZM38.2262 23.8692C38.2191 23.8588 38.1199 23.9553 37.9664 24.1259C37.3347 24.8201 36.5284 25.5921 35.8004 26.1966C33.8629 27.8124 33.147 28.9795 33.141 30.5594C33.141 31.2656 33.3094 32.0077 33.6704 32.9294C33.8148 33.3004 33.9953 33.8152 34.0615 34.0785C34.1879 34.5453 34.2059 34.5752 34.5429 34.8326C35.1987 35.3413 35.4815 35.9217 35.4212 36.6399C35.3852 37.1486 35.1566 37.6154 34.7293 38.0583L34.3745 38.4294L34.3322 39.2971C34.2902 40.2068 34.3203 40.4821 34.597 41.7808C34.7414 42.4331 34.7294 42.8281 34.5609 43.4266C34.4286 43.8814 33.9893 44.7132 33.6162 45.204L33.3094 45.611L33.6403 45.3357C34.5248 44.5877 35.0783 43.5224 35.0783 42.5469C35.0783 42.3374 34.9942 41.7568 34.8919 41.2541C34.6933 40.2487 34.573 39.1595 34.6271 38.7884C34.6512 38.6029 34.7354 38.4652 34.97 38.2199C35.8485 37.2803 36.1012 36.4184 35.8906 35.0779C35.6981 33.8391 35.5417 33.3663 34.958 32.2053C34.236 30.7749 34.1217 30.2602 34.3263 29.2728C34.573 28.0877 35.1325 27.2379 36.6789 25.6819C37.3106 25.0476 37.9063 24.3593 38.2012 23.9165C38.2207 23.888 38.2285 23.8727 38.2262 23.8692ZM6.06775 25.3262C6.04238 25.3231 5.95519 25.3812 5.80626 25.5024C5.28879 25.9213 3.92901 26.5497 3.54395 26.5497C3.48379 26.5497 3.42358 26.5677 3.40551 26.5976C3.36336 26.6694 4.02529 28.004 4.66306 29.0932C5.32493 30.2363 5.70395 30.8348 6.35981 31.7744C6.6125 32.1275 6.82916 32.4147 6.84723 32.4147C6.85928 32.4147 6.8291 32.3549 6.78093 32.2831C6.09505 31.3136 5.16849 29.8592 4.57279 28.7999C4.38023 28.4588 4.37429 28.4289 4.44046 28.1297C4.59689 27.3875 5.03614 26.5736 5.67994 25.8434C5.98077 25.5068 6.11004 25.3315 6.06775 25.3262ZM38.1427 26.6038C38.0973 26.5766 37.6416 27.2992 37.2805 28.0219C37.0097 28.5725 36.9436 28.8299 36.9436 29.3684C36.9436 29.8532 36.9797 29.943 37.5333 30.9185C37.8101 31.4093 37.9062 31.8581 37.9484 32.8636C37.9844 33.7253 37.9905 33.7493 38.0687 33.5219C38.1169 33.3902 38.2734 32.8276 38.4117 32.2651C38.5561 31.7085 38.7547 31.0503 38.857 30.8169C39.0375 30.3859 39.0374 30.3799 38.9111 30.3799C38.3876 30.3799 37.6896 29.8532 37.5513 29.3445C37.3828 28.764 37.5453 27.9621 38.0326 26.9088C38.1274 26.7053 38.1579 26.6129 38.1427 26.6038ZM31.5535 26.9872C31.5423 26.9852 31.5111 27.0049 31.4623 27.0404C31.2035 27.2319 30.5897 27.9502 30.2768 28.423C29.615 29.4404 29.3924 30.6133 29.6632 31.6607C29.8617 32.4267 30.1505 32.8995 30.8484 33.5998C31.6667 34.4077 31.6909 34.4076 31.1253 33.6057C30.7041 33.0013 30.4092 32.3669 30.3009 31.8043C30.1626 31.1341 30.1746 30.0388 30.325 29.4463C30.4754 28.8598 30.8846 27.998 31.3119 27.3816C31.5062 27.1018 31.5783 26.9917 31.5535 26.9872ZM20.3596 27.4713C20.1851 27.4789 20.0452 27.5581 19.9459 27.7107C19.8617 27.8424 19.8557 27.8783 19.9399 28.0698C20.0181 28.2614 20.0182 28.2912 19.934 28.375C19.7113 28.5964 19.4826 28.6623 19.0133 28.6263C18.3755 28.5785 17.9905 28.4289 18.2552 28.3271C18.3033 28.3092 18.4718 28.3571 18.6222 28.4408C18.9351 28.6024 19.2961 28.6264 19.4705 28.4947C19.5668 28.4229 19.5729 28.4109 19.4827 28.405C19.4285 28.405 19.1999 28.3092 18.9712 28.1896C18.4117 27.8903 18.2612 27.8543 18.0145 27.9561C17.5572 28.1416 17.6053 28.5666 18.1108 28.7821C18.3454 28.8778 18.4237 28.9496 18.4959 29.1231C18.6583 29.5361 18.6703 29.7515 18.5439 30.0448C18.3875 30.3919 17.7979 31.122 17.5392 31.2776C17.2323 31.4631 17.0999 31.4332 16.787 31.0981C16.5103 30.8048 16.5043 30.7988 16.1493 30.7988C15.7823 30.7988 15.4093 30.9305 15.1204 31.1579C15.0362 31.2237 14.976 31.2776 14.988 31.2776C15 31.2776 15.1625 31.2357 15.343 31.1878C15.7462 31.0801 16.1492 31.0742 16.2274 31.1759C16.2636 31.2118 16.3178 31.3375 16.3599 31.4512C16.396 31.5649 16.5224 31.7445 16.6306 31.8461C16.745 31.9479 16.8653 32.1334 16.9014 32.2651C16.9615 32.4806 16.9496 32.5405 16.8111 32.8217C16.6247 33.2047 16.2756 33.4501 15.7942 33.5518C15.4453 33.6236 15.2468 33.7732 15.1866 34.0066C15.1625 34.0964 15.1685 34.4256 15.1926 34.7428C15.2588 35.4969 15.2467 35.7781 15.1324 36.1312C15 36.5202 14.5788 36.975 14.1516 37.1844C13.8447 37.3341 13.7485 37.3521 13.1769 37.3521C12.5632 37.3521 12.5331 37.3461 12.0337 37.1067C11.1312 36.6759 9.89772 35.7661 8.75452 34.6889L8.15281 34.1204L8.53199 34.5512C9.97602 36.191 12.2684 38.0044 14.296 39.1116C17.2262 40.7095 20.2047 41.6551 23.4658 42.0202C24.3382 42.1159 27.106 42.1039 27.7378 41.9962C27.9544 41.9603 28.5079 41.8466 28.9772 41.7449L29.8256 41.5594L29.7955 40.9489C29.7774 40.518 29.8076 40.1111 29.8979 39.5246C29.964 39.0698 30.0242 38.6687 30.0242 38.6208C30.0242 38.5789 29.9038 38.4175 29.7594 38.2678C29.4345 37.9207 29.2179 37.4956 29.0675 36.8852C29.0013 36.6279 28.911 36.3526 28.8569 36.2748C28.6523 35.9636 28.1228 36.0115 26.2276 36.5142C24.7594 36.9092 24.0314 37.011 23.4297 36.9092C22.6175 36.7716 22.0158 36.2868 21.8352 35.6284C21.7691 35.389 21.7871 34.8804 21.8773 34.1204C21.9315 33.6895 21.7991 33.474 21.3298 33.2526C20.9327 33.067 20.8244 32.9713 20.674 32.6721C20.4814 32.2891 20.6138 31.7564 20.8966 31.7564C20.9448 31.7564 21.0048 31.6547 21.0349 31.535C21.1252 31.1759 21.3058 31.11 21.8654 31.2237C22.3708 31.3254 22.3948 31.2596 21.9375 31.0442C21.6607 30.9066 21.2275 30.8826 20.9628 30.9784C20.8244 31.0322 20.7642 31.0203 20.5717 30.8827C20.2348 30.6552 20.0242 30.3499 19.9941 30.0567C19.976 29.8473 20.0181 29.7276 20.3189 29.189C20.6558 28.5845 20.674 28.5605 20.9869 28.4468C21.4803 28.2613 21.4801 27.9501 20.9807 27.6628C20.7431 27.5282 20.5341 27.4639 20.3596 27.4713ZM20.5244 27.9284C20.6484 27.9366 20.7763 27.9681 20.8184 28.0159C20.8845 28.0937 20.8605 28.1058 20.6319 28.0998C20.325 28.0938 20.2046 28.0579 20.2528 27.9801C20.2798 27.9352 20.4003 27.9202 20.5244 27.9284ZM33.7697 35.2254C33.6674 35.2254 33.5832 35.3092 33.5832 35.4049C33.5832 35.5067 33.6674 35.5905 33.7697 35.5905C33.872 35.5905 33.9502 35.5067 33.9502 35.4049C33.9502 35.3092 33.872 35.2254 33.7697 35.2254ZM33.1316 35.9191C33.0293 35.9191 32.9451 36.0029 32.9451 36.0987C32.9451 36.2004 33.0293 36.2842 33.1316 36.2842C33.2339 36.2842 33.3121 36.2004 33.3121 36.0987C33.3121 36.0029 33.2339 35.9191 33.1316 35.9191ZM34.3019 35.9667C34.1996 35.9667 34.1155 36.0505 34.1155 36.1463C34.1155 36.248 34.1996 36.3319 34.3019 36.3319C34.4042 36.3319 34.4824 36.248 34.4824 36.1463C34.4824 36.0505 34.4042 35.9667 34.3019 35.9667ZM33.6584 36.9047C33.5561 36.9047 33.4719 36.9885 33.4719 37.0843C33.4719 37.1861 33.5561 37.2698 33.6584 37.2698C33.7607 37.2698 33.8389 37.1861 33.8389 37.0843C33.8389 36.9885 33.7607 36.9047 33.6584 36.9047ZM33.5079 37.9435C33.4056 37.9435 33.3214 38.0273 33.3214 38.1231C33.3214 38.2248 33.4056 38.3086 33.5079 38.3086C33.6102 38.3086 33.6884 38.2248 33.6884 38.1231C33.6884 38.0273 33.6102 37.9435 33.5079 37.9435ZM33.4779 40.542L33.3455 41.1942C33.183 42.0201 32.9304 42.7623 32.6114 43.3548C32.1481 44.2166 31.4983 45.1203 31.0229 45.5691C30.7703 45.8025 30.5777 46 30.6018 46C30.704 46 31.5705 45.5572 31.8954 45.3357C32.6716 44.8151 33.2733 44.0909 33.5801 43.3248C33.7546 42.888 33.7547 42.0859 33.5922 41.1643L33.4779 40.542Z" fill="white"/>
</svg>
