<svg width="44" height="33" viewBox="0 0 44 33" fill="none" xmlns="http://www.w3.org/2000/svg">
<path fill-rule="evenodd" clip-rule="evenodd" d="M23.1155 32.2904C21.5864 32.2904 21.1364 32.2081 19.2056 31.2161C16.0555 29.5854 14.7877 28.0805 13.036 25.9997C12.4601 25.3174 11.8069 24.5384 11.0181 23.6819C9.93419 22.5157 7.81956 21.1801 3.93872 21.4221C3.69193 21.4414 3.47418 21.2479 3.45966 20.9963C3.4403 20.7495 3.63386 20.5317 3.88549 20.5172C8.11957 20.2511 10.4665 21.756 11.6859 23.0673L11.6907 23.0722C12.494 23.948 13.1569 24.7319 13.7376 25.4239C15.4845 27.4998 16.641 28.8741 19.6266 30.4177C21.538 31.3952 21.7267 31.3952 23.5655 31.3903C23.7494 31.3903 23.9526 31.3855 24.1704 31.3855H36.6452C37.2549 31.3855 37.7485 30.8919 37.7485 30.2822V29.1499C37.7485 27.916 36.7565 26.9143 35.542 26.9143H25.9124C25.7914 27.0692 25.656 27.224 25.506 27.374C24.8769 28.0176 24.3785 28.5257 23.7639 28.5257C23.2365 28.5257 22.7768 28.1628 22.2009 27.5676L12.9489 18.0348C12.7747 17.8558 12.7795 17.5703 12.9585 17.3961C13.1376 17.2219 13.4231 17.2267 13.5973 17.4058L22.8494 26.9385C23.1349 27.2288 23.5413 27.6208 23.7639 27.6208C23.9817 27.6208 24.3543 27.2579 24.8575 26.7401C24.8575 26.7401 24.8575 26.7401 24.8624 26.7353C25.0075 26.5901 25.1334 26.4449 25.2398 26.2998C25.264 26.2272 25.3124 26.1691 25.3656 26.1207C25.6366 25.6997 25.7624 25.2787 25.7527 24.8432C25.7092 23.4012 24.1414 21.9882 22.8784 20.8463C22.6945 20.6817 22.5203 20.522 22.3558 20.372C22.3558 20.372 22.351 20.372 22.351 20.3672C20.0234 18.1848 18.2282 14.5604 18.1507 14.4104C18.1459 14.4008 18.1411 14.3911 18.1411 14.3862C16.8781 11.3716 13.1327 10.2344 10.21 9.8086C6.96306 9.33922 3.98227 9.61987 3.95323 9.62471C3.70645 9.64891 3.48385 9.46502 3.45966 9.21823C3.43546 8.97145 3.61935 8.74886 3.86613 8.72466C3.99195 8.71498 6.97274 8.42949 10.3261 8.91339C12.315 9.19889 14.0134 9.70214 15.3829 10.3989C17.1297 11.2893 18.3395 12.5136 18.9734 14.0282C19.0847 14.2556 20.8315 17.7009 22.9752 19.7139C23.1349 19.8639 23.3042 20.0188 23.4881 20.1785C24.8769 21.4318 26.6092 22.9899 26.6576 24.819C26.6673 25.2255 26.5947 25.6271 26.4399 26.0143H35.5371C37.2549 26.0143 38.6486 27.4224 38.6486 29.1547V30.2871C38.6486 31.3952 37.7437 32.2952 36.6404 32.2952H24.1656C23.9478 32.2952 23.7494 32.2952 23.5655 32.3001C23.4058 32.2904 23.2607 32.2904 23.1155 32.2904Z" fill="#FFFFFE"/>
<path fill-rule="evenodd" clip-rule="evenodd" d="M0.909725 22.2205H2.18237C2.8937 22.2205 3.45502 21.6592 3.45502 20.9479V9.09241C3.45502 8.38108 2.8937 7.81976 2.18237 7.81976H0.909725V22.2205ZM2.18237 23.1254H0.454863C0.208076 23.1254 0 22.9221 0 22.6705V7.3649C0 7.11812 0.203237 6.91003 0.454863 6.91003H2.18237C2.76788 6.91003 3.31469 7.13747 3.726 7.54394C4.13731 7.95041 4.3599 8.50205 4.3599 9.08757V20.943C4.3599 21.5285 4.13247 22.0753 3.726 22.4866C3.31952 22.898 2.77272 23.1254 2.18237 23.1254Z" fill="#FFFFFE"/>
<path fill-rule="evenodd" clip-rule="evenodd" d="M30.7854 32.2904C30.5386 32.2904 30.3306 32.0872 30.3306 31.8356V30.2242C30.3306 29.1645 31.1919 28.2983 32.2565 28.2983H38.1697C38.4165 28.2983 38.6245 28.5015 38.6245 28.7531C38.6245 29.0048 38.4213 29.208 38.1697 29.208H32.2565C31.7048 29.208 31.2403 29.6725 31.2403 30.2242V31.8356C31.2403 32.0872 31.0371 32.2904 30.7854 32.2904Z" fill="#FFFFFE"/>
<path fill-rule="evenodd" clip-rule="evenodd" d="M26.9964 0.890375C25.4334 0.890375 23.8656 1.48556 22.6752 2.67595C21.5139 3.82278 20.8751 5.35673 20.8751 6.99714C20.8751 8.63754 21.5139 10.1667 22.6704 11.3135L31.7144 20.3575L40.7584 11.3135C41.9198 10.1667 42.5585 8.6327 42.5585 6.99229C42.5585 5.35189 41.9198 3.82278 40.7633 2.67595C38.3777 0.29034 34.5065 0.290347 32.1209 2.67111L32.0338 2.75821C31.8596 2.93241 31.5692 2.93241 31.395 2.75821L31.3079 2.67111C30.1272 1.48557 28.5594 0.890375 26.9964 0.890375ZM31.7193 21.4559C31.6031 21.4559 31.487 21.4124 31.3999 21.3253L22.0365 11.9619C20.7058 10.6457 19.9751 8.88434 19.9751 7.00198C19.9751 5.11963 20.7058 3.35825 22.0413 2.04205C23.3575 0.725853 25.1189 0 27.0013 0C28.7723 0 30.4369 0.643581 31.7241 1.81461C33.0113 0.638742 34.6759 0 36.4469 0C38.3293 0 40.0906 0.725853 41.4068 2.04205C42.7376 3.35825 43.4682 5.11963 43.4682 7.00198C43.4682 8.88434 42.7376 10.6457 41.402 11.9619L32.0386 21.3253C31.9515 21.4076 31.8354 21.4559 31.7193 21.4559Z" fill="#FFFFFE"/>
</svg>
