<svg width="355" height="276" viewBox="0 0 355 276" fill="none" xmlns="http://www.w3.org/2000/svg">
<path fill-rule="evenodd" clip-rule="evenodd" d="M200.197 274.117C196.213 274.117 192.308 272.302 189.468 269.147L171.679 249.307C170.299 247.769 170.456 245.441 171.955 244.1C173.493 242.72 175.821 242.878 177.162 244.376L194.911 264.216C196.371 265.834 198.264 266.741 200.157 266.741C200.197 266.741 200.197 266.741 200.236 266.741C201.972 266.701 203.549 265.952 204.812 264.493C204.851 264.453 204.851 264.453 204.891 264.414C207.849 261.1 207.77 255.46 204.654 252.068L163.593 206.156C162.252 204.617 162.37 202.29 163.909 200.949C165.447 199.608 167.774 199.726 169.115 201.265L210.176 247.137C215.737 253.291 215.856 263.27 210.413 269.305C207.809 272.342 204.22 274.038 200.394 274.077C200.315 274.117 200.236 274.117 200.197 274.117Z" fill="#FFFFFE"/>
<path fill-rule="evenodd" clip-rule="evenodd" d="M226.624 269.857C222.6 269.857 218.814 268.121 215.974 265.005L215.934 264.966L204.654 252.265C203.312 250.727 203.431 248.4 204.969 247.058C206.507 245.717 208.835 245.836 210.176 247.374L221.456 260.035C222.876 261.613 224.691 262.481 226.624 262.481C228.438 262.481 230.134 261.692 231.436 260.272C234.394 256.959 234.315 251.318 231.199 247.926L231.16 247.887L183.867 194.638C182.486 193.1 182.644 190.773 184.182 189.432C185.721 188.09 188.048 188.209 189.389 189.747L236.682 242.996C242.243 249.188 242.362 259.168 236.918 265.242C234.197 268.2 230.568 269.857 226.624 269.857Z" fill="#FFFFFE"/>
<path fill-rule="evenodd" clip-rule="evenodd" d="M231.515 241.261C231.396 241.261 231.278 241.261 231.159 241.261C227.255 241.182 223.626 239.407 220.983 236.33C219.642 234.792 219.839 232.465 221.378 231.124C222.916 229.783 225.243 229.98 226.584 231.518C227.846 232.977 229.542 233.845 231.357 233.885C233.289 233.924 235.104 233.135 236.563 231.597C236.603 231.557 236.603 231.557 236.642 231.518C239.522 228.639 239.206 222.84 236.051 219.291C236.011 219.251 236.011 219.251 236.011 219.251L169.825 143.835C168.484 142.297 168.642 139.97 170.18 138.629C171.718 137.288 174.045 137.445 175.386 138.984L241.533 214.36C247.331 220.829 247.489 231.005 241.888 236.685C239.088 239.604 235.341 241.261 231.515 241.261Z" fill="#FFFFFE"/>
<path fill-rule="evenodd" clip-rule="evenodd" d="M123.676 108.927C122.651 108.927 121.665 108.493 120.915 107.704L107.071 92.2426C105.73 90.7043 105.848 88.3771 107.347 87.0361C108.885 85.695 111.212 85.8133 112.553 87.3122L124.623 100.762C139.099 94.8853 148.368 98.0802 152.707 100.605C154.797 101.788 155.862 103.09 156.138 103.405L150.222 107.823C150.222 107.823 150.261 107.862 150.301 107.902C150.301 107.902 149.906 107.428 149.039 106.955C148.999 106.955 148.999 106.916 148.999 106.916C145.646 104.943 138.113 102.537 125.215 108.454C124.741 108.809 124.229 108.927 123.676 108.927Z" fill="#FFFFFE"/>
<path fill-rule="evenodd" clip-rule="evenodd" d="M85.1792 164.03C83.2465 164.03 81.5898 162.491 81.4715 160.559C81.2743 156.812 81.7081 152.867 82.852 148.805L69.9146 134.21C68.5735 132.672 68.7312 130.345 70.2301 129.004C71.7684 127.663 74.0956 127.821 75.4367 129.319L89.7152 145.452C90.583 146.438 90.8591 147.818 90.4646 149.081C89.163 153.025 88.6108 156.654 88.808 160.164C88.9263 162.176 87.3486 163.951 85.337 164.069C85.2975 164.03 85.2581 164.03 85.1792 164.03ZM167.971 272.144C164.066 272.144 160.319 270.409 157.676 267.332L156.611 266.267C155.191 264.847 155.191 262.481 156.611 261.061C158.031 259.641 160.398 259.641 161.818 261.061L162.962 262.205C163.041 262.284 163.12 262.362 163.159 262.402C164.461 263.94 166.157 264.768 167.971 264.768C169.785 264.768 171.482 263.94 172.783 262.402C172.823 262.362 172.823 262.362 172.862 262.323C175.781 259.089 175.781 253.567 172.783 250.135C171.442 248.597 171.639 246.269 173.178 244.928C174.716 243.587 177.043 243.785 178.384 245.323C183.749 251.594 183.749 261.219 178.345 267.214C175.663 270.369 171.876 272.144 167.971 272.144Z" fill="#FFFFFE"/>
<path fill-rule="evenodd" clip-rule="evenodd" d="M61.277 142.1C56.6227 142.1 52.3233 140.127 49.0495 136.577C49.0101 136.538 49.0101 136.538 48.9707 136.499L39.7409 125.888C38.3998 124.35 38.5576 122.023 40.0959 120.682C41.6342 119.341 43.9613 119.498 45.3024 121.037L54.4927 131.608C56.386 133.619 58.8315 134.763 61.3954 134.684C63.8803 134.645 66.2075 133.58 67.9035 131.608L109.398 84.7881C113.224 80.4493 113.224 73.0734 109.398 68.6952L99.9316 58.0849C98.5906 56.5466 98.7089 54.2194 100.247 52.8783C101.785 51.5372 104.113 51.6556 105.454 53.1939L114.92 63.8042C114.92 63.8042 114.92 63.8436 114.96 63.8436C121.231 70.9829 121.231 82.5793 114.96 89.6791L73.4256 136.499C70.3096 140.009 66.0891 142.021 61.4742 142.06C61.3953 142.06 61.3165 142.1 61.277 142.1Z" fill="#FFFFFE"/>
<path fill-rule="evenodd" clip-rule="evenodd" d="M12.0905 106.876C11.2228 106.876 10.355 106.561 9.64504 105.969C8.10675 104.628 7.9884 102.262 9.32948 100.763L48.5363 56.7044C49.8774 55.1661 52.244 55.0477 53.7429 56.3888C55.2812 57.7299 55.3994 60.0965 54.0584 61.5954L14.8516 105.654C14.1021 106.443 13.0766 106.876 12.0905 106.876Z" fill="#FFFFFE"/>
<path fill-rule="evenodd" clip-rule="evenodd" d="M77.8822 53.1149C77.2905 53.1149 76.6594 53.4305 76.1466 53.9827C74.8844 55.3632 74.8844 57.572 76.1466 58.9131C76.6594 59.5048 77.33 59.8203 77.9611 59.7809C78.4738 59.7414 78.9866 59.5048 79.3811 59.0315C79.4205 58.992 79.4599 58.9526 79.4993 58.8737C80.7615 57.5326 80.7615 55.2843 79.4993 53.9432C79.4599 53.9038 79.4205 53.8643 79.3811 53.7855C78.9866 53.3121 78.5133 53.036 77.9611 53.036C77.9216 53.1149 77.8822 53.1149 77.8822 53.1149ZM77.8822 67.1962C75.2 67.1962 72.5968 66.0129 70.7035 63.9224C66.8775 59.7414 66.8775 53.1938 70.7035 49.0128C72.6757 46.8828 75.3578 45.6995 78.1188 45.739C80.7615 45.8179 83.2071 47.0012 84.982 49.0917C88.7292 53.2333 88.7292 59.702 84.982 63.883C83.2071 65.9735 80.801 67.1568 78.1188 67.2357C78.0399 67.1963 77.9611 67.1962 77.8822 67.1962Z" fill="#FFFFFE"/>
<path fill-rule="evenodd" clip-rule="evenodd" d="M8.69825 93.7022L36.2693 124.823L103.994 48.7366L76.4228 17.6157L8.69825 93.7022ZM36.3087 134.053C35.2437 134.053 34.2576 133.58 33.5477 132.791L1.04625 96.1082C-0.215939 94.6883 -0.215939 92.5978 1.04625 91.1778L73.7011 9.52977C74.4111 8.7409 75.3972 8.26758 76.4622 8.26758C77.5272 8.26758 78.5133 8.7409 79.2232 9.52977L111.725 46.2122C112.987 47.6322 112.987 49.7227 111.725 51.1427L39.0697 132.791C38.3598 133.619 37.3342 134.053 36.3087 134.053Z" fill="#FFFFFE"/>
<path fill-rule="evenodd" clip-rule="evenodd" d="M180.83 146.123C172.902 146.123 165.408 143.559 158.702 138.431C158.189 138.076 153.417 135.236 145.883 137.642C144.226 138.707 138.468 142.297 131.328 144.387C119.653 147.819 109.911 145.689 103.166 138.274C102.219 137.406 98.9847 133.974 99.8131 129.478C100.523 125.691 103.876 122.733 109.832 120.682L178.858 93.939C181.422 91.9274 191.283 85.8531 209.584 92.4007L216.211 85.9714C217.67 84.5515 219.997 84.5909 221.417 86.0503C222.837 87.5097 222.798 89.8369 221.339 91.2569L213.055 99.3428C212.03 100.368 210.492 100.644 209.111 100.132C199.605 96.3451 193.058 96.5029 189.192 97.2917C185.366 98.0806 183.512 99.6189 183.276 99.8161C182.921 100.171 182.566 100.408 182.053 100.605L112.356 127.584C112.317 127.624 112.277 127.624 112.198 127.624C108.293 128.965 107.071 130.345 106.992 130.858C106.874 131.41 107.702 132.515 108.096 132.83C108.215 132.949 108.333 133.028 108.451 133.185C120.166 146.241 141.899 131.371 142.097 131.253C142.373 131.055 142.688 130.898 143.004 130.779C154.797 126.756 162.607 132.199 162.962 132.436C163.002 132.475 163.041 132.475 163.041 132.515C170.89 138.51 179.765 140.206 189.389 137.524C196.844 135.434 202.051 131.45 202.09 131.371C203.668 130.109 205.995 130.385 207.297 132.002C208.598 133.619 208.283 135.907 206.705 137.169C206.468 137.366 200.512 142.021 191.677 144.545C187.969 145.61 184.38 146.123 180.83 146.123ZM226.782 206.708C225.875 206.708 224.928 206.353 224.218 205.643C222.758 204.223 222.758 201.896 224.178 200.436C224.494 200.081 257.35 166.594 273.522 150.146C274.942 148.687 277.269 148.687 278.729 150.107C280.188 151.527 280.188 153.854 278.768 155.313C262.596 171.722 229.779 205.249 229.424 205.604C228.675 206.353 227.728 206.708 226.782 206.708Z" fill="#FFFFFE"/>
<path fill-rule="evenodd" clip-rule="evenodd" d="M70.5069 197.399C75.9501 202.606 84.7854 202.605 90.2286 197.36L101.036 186.552C106.282 181.109 106.282 172.313 101.076 166.83C95.6324 161.624 86.797 161.624 81.3538 166.87L70.5463 177.677C65.2608 183.16 65.2609 191.956 70.5069 197.399ZM80.3283 208.719C74.6879 208.719 69.3629 206.589 65.3003 202.684C65.2608 202.645 65.2214 202.606 65.2214 202.606C61.3165 198.582 59.1865 193.257 59.1865 187.578C59.1865 181.937 61.3165 176.612 65.2214 172.55C65.2608 172.51 65.2609 172.51 65.2609 172.51L76.1078 161.663C76.1473 161.624 76.1472 161.624 76.1472 161.624C80.1705 157.719 85.4954 155.589 91.1752 155.589C96.8157 155.589 102.141 157.719 106.203 161.624C106.243 161.663 106.282 161.703 106.282 161.703C110.187 165.726 112.317 171.051 112.317 176.731C112.317 182.371 110.187 187.696 106.282 191.759C106.243 191.798 106.243 191.798 106.243 191.798L95.3957 202.645C95.3562 202.684 95.3563 202.684 95.3563 202.684C91.333 206.589 85.9687 208.719 80.3283 208.719Z" fill="#FFFFFE"/>
<path fill-rule="evenodd" clip-rule="evenodd" d="M133.616 212.348C130.5 212.348 127.581 213.571 125.372 215.78L115.905 225.246C113.697 227.455 112.474 230.532 112.474 233.687C112.513 236.764 113.697 239.604 115.827 241.655C115.866 241.694 115.866 241.694 115.866 241.694C118.075 243.903 120.994 245.126 124.11 245.126C127.226 245.126 130.144 243.903 132.353 241.694L141.82 232.228C144.029 230.019 145.251 227.1 145.251 223.984C145.251 220.868 144.029 217.949 141.82 215.74C139.65 213.571 136.732 212.348 133.616 212.348ZM124.149 252.502C119.061 252.502 114.328 250.53 110.738 246.94C107.149 243.509 105.177 238.815 105.137 233.766C105.098 228.638 107.11 223.629 110.699 220.04L120.165 210.573C123.755 206.984 128.527 205.012 133.616 205.012C138.704 205.012 143.476 206.984 147.066 210.573C150.655 214.163 152.627 218.935 152.627 224.023C152.627 229.112 150.655 233.884 147.066 237.474L137.599 246.94C134.01 250.49 129.237 252.502 124.149 252.502Z" fill="#FFFFFE"/>
<path fill-rule="evenodd" clip-rule="evenodd" d="M111.804 190.931C108.688 190.931 105.651 192.193 103.482 194.362L94.0152 203.829C91.8063 206.037 90.5836 208.956 90.5836 212.072C90.5836 215.188 91.8063 218.107 94.0152 220.316C96.224 222.525 99.1429 223.748 102.259 223.748C105.375 223.748 108.294 222.525 110.503 220.316L119.969 210.85C122.178 208.641 123.401 205.722 123.401 202.606C123.401 199.49 122.178 196.571 119.969 194.362C119.93 194.323 119.93 194.323 119.93 194.323C117.878 192.193 115.039 190.97 111.962 190.97C111.844 190.931 111.804 190.931 111.804 190.931ZM102.259 231.045C97.1707 231.045 92.398 229.073 88.8086 225.483C85.2193 221.894 83.2471 217.121 83.2471 212.033C83.2471 206.945 85.2193 202.172 88.8086 198.583L98.2751 189.116C101.825 185.566 106.755 183.555 111.804 183.555C111.883 183.555 111.923 183.555 112.001 183.555C117.09 183.594 121.744 185.566 125.176 189.156C128.765 192.745 130.737 197.518 130.737 202.566C130.737 207.655 128.765 212.427 125.176 216.017L115.709 225.483C112.08 229.073 107.308 231.045 102.259 231.045Z" fill="#FFFFFE"/>
<path fill-rule="evenodd" clip-rule="evenodd" d="M146.119 238.381L136.692 248.005L136.653 248.044C134.444 250.253 133.221 253.172 133.221 256.288C133.221 259.404 134.444 262.323 136.653 264.532C138.862 266.741 141.78 267.963 144.897 267.963C147.973 267.963 150.931 266.78 153.101 264.532L162.528 254.868C162.567 254.829 162.567 254.829 162.607 254.789C164.737 252.738 165.959 249.898 165.959 246.822C165.999 243.666 164.776 240.629 162.567 238.42C158.071 234.042 150.655 234.042 146.119 238.381ZM144.897 275.3C139.808 275.3 135.036 273.328 131.446 269.738C127.857 266.149 125.885 261.376 125.885 256.288C125.885 251.2 127.857 246.427 131.446 242.877L140.873 233.214C140.913 233.174 140.913 233.174 140.952 233.135C144.542 229.664 149.314 227.771 154.363 227.771C159.412 227.771 164.145 229.664 167.774 233.135C167.813 233.174 167.813 233.174 167.813 233.174C171.403 236.764 173.454 241.773 173.375 246.901C173.335 251.989 171.363 256.643 167.813 260.075L158.386 269.699L158.347 269.738C154.757 273.328 149.985 275.3 144.897 275.3Z" fill="#FFFFFE"/>
<path fill-rule="evenodd" clip-rule="evenodd" d="M282.239 157.956C276.993 157.956 272.023 155.668 268.315 151.527C268.315 151.527 268.315 151.487 268.276 151.487L218.932 95.9112C211.477 87.6281 211.477 74.1384 218.932 65.8552L230.213 53.1939C231.554 51.6556 233.92 51.5372 235.419 52.8783C236.958 54.2588 237.076 56.586 235.735 58.0849L224.454 70.7857C219.524 76.2683 219.524 85.5375 224.415 91.0202C224.415 91.0202 224.415 91.0596 224.454 91.0596L273.798 146.636C276.086 149.199 279.083 150.619 282.239 150.619C285.394 150.619 288.392 149.199 290.68 146.636L301.96 133.974C303.302 132.436 305.668 132.318 307.167 133.659C308.705 135 308.824 137.366 307.483 138.865L296.202 151.566C292.455 155.668 287.485 157.956 282.239 157.956Z" fill="#FFFFFE"/>
<path fill-rule="evenodd" clip-rule="evenodd" d="M340.694 116.067C339.669 116.067 338.683 115.633 337.933 114.805L291.114 62.2265C289.733 60.6882 289.891 58.361 291.429 57.0199C292.968 55.6788 295.295 55.7972 296.636 57.3355L343.455 109.914C344.797 111.452 344.678 113.779 343.14 115.12C342.43 115.791 341.562 116.067 340.694 116.067Z" fill="#FFFFFE"/>
<path fill-rule="evenodd" clip-rule="evenodd" d="M262.438 51.8921C262.399 51.8921 262.399 51.8921 262.399 51.8921C261.531 51.9315 260.742 52.326 260.111 53.0754C260.072 53.1543 259.993 53.2332 259.914 53.2726C258.218 55.087 258.218 58.2031 259.914 60.0175C259.953 60.0569 259.993 60.0963 259.993 60.1358C260.584 60.8458 261.452 61.2402 262.359 61.2796C263.345 61.3191 264.292 60.8852 265.042 60.0963C266.58 58.2425 266.58 55.0081 265.002 53.1937C264.292 52.4049 263.385 51.8921 262.438 51.8921ZM262.438 68.695C262.359 68.695 262.28 68.695 262.241 68.695C259.283 68.6161 256.443 67.3145 254.51 65.0662C250.29 60.4908 250.29 53.036 254.471 48.4211C256.443 46.015 259.283 44.6345 262.281 44.5556C265.436 44.4767 268.473 45.8967 270.643 48.4211C274.626 53.0754 274.626 60.3724 270.682 64.9873C270.643 65.0268 270.603 65.0662 270.603 65.1057C268.394 67.3934 265.436 68.695 262.438 68.695Z" fill="#FFFFFE"/>
<path fill-rule="evenodd" clip-rule="evenodd" d="M230.568 47.3561L311.861 139.102L345.664 101.078L264.135 9.56927L230.568 47.3561ZM311.861 148.371C310.796 148.371 309.81 147.898 309.1 147.109L222.837 49.8016C221.575 48.3817 221.575 46.2912 222.837 44.9106L261.334 1.56225C262.044 0.773376 263.03 0.300049 264.095 0.300049C265.16 0.300049 266.146 0.733932 266.856 1.56225L353.316 98.6327C354.579 100.053 354.579 102.143 353.316 103.563L314.583 147.148C313.912 147.898 312.926 148.371 311.861 148.371Z" fill="#FFFFFE"/>
</svg>
